<svg xmlns="http://www.w3.org/2000/svg" width="64.223" height="21.018" viewBox="0 0 64.223 21.018"><defs><style>.a{fill:none;}.b{fill:#ccc;}</style></defs><rect class="a" width="64.223" height="21.018"/><g transform="translate(1.084)"><rect class="a" width="62.054" height="21.018"/><g transform="translate(1.001 0.905)"><g transform="translate(37.042 0.799)"><path class="b" d="M368.912,91.088v1.15a.576.576,0,0,1-.575.575h-1.726a3.452,3.452,0,1,1-6.9,0h-4.6a3.452,3.452,0,1,1-6.9,0h-.575a1.726,1.726,0,0,1-1.726-1.725V79.583a1.727,1.727,0,0,1,1.726-1.726h11.505a1.727,1.727,0,0,1,1.726,1.726v1.725h1.585a1.724,1.724,0,0,1,1.219.507l3.592,3.592a1.723,1.723,0,0,1,.507,1.219v3.886h.575A.577.577,0,0,1,368.912,91.088ZM353.38,92.814a1.726,1.726,0,1,0-1.726,1.726A1.726,1.726,0,0,0,353.38,92.814Zm12.656-6.188-3.592-3.592h-1.585v4.027h5.177Zm-1.15,6.188a1.726,1.726,0,1,0-1.726,1.726A1.726,1.726,0,0,0,364.885,92.814Z" transform="translate(-345.901 -77.857)"/></g><path class="b" d="M339.209,88.349l-3.131-3.131a.448.448,0,0,0-.764.317v1.789H332.78a.446.446,0,0,0-.447.448v1.789a.446.446,0,0,0,.447.448h2.535V91.8a.448.448,0,0,0,.764.316l3.131-3.131A.451.451,0,0,0,339.209,88.349Z" transform="translate(-305.282 -78.964)"/><g transform="translate(0 0)"><path class="b" d="M319.606,82.823V95.68a.3.3,0,0,1-.3.3h-3a.3.3,0,0,1-.3-.3v-9.3a1.214,1.214,0,0,0-1.223-1.2H300.42a1.214,1.214,0,0,0-1.223,1.2v9.3a.3.3,0,0,1-.3.3h-3a.3.3,0,0,1-.3-.3V82.823a1.8,1.8,0,0,1,1.107-1.662l10.2-4.251a1.809,1.809,0,0,1,1.384,0L318.5,81.161A1.8,1.8,0,0,1,319.606,82.823Zm-4.8,11.056v1.8a.3.3,0,0,1-.3.3H300.7a.3.3,0,0,1-.3-.3l0-1.8a.3.3,0,0,1,.3-.3h13.8A.3.3,0,0,1,314.8,93.878Zm0-3.6v1.8a.3.3,0,0,1-.3.3H300.709a.3.3,0,0,1-.3-.3l0-1.8a.3.3,0,0,1,.3-.3H314.5A.3.3,0,0,1,314.8,90.277Zm0-3.6v1.8a.3.3,0,0,1-.3.3H300.717a.3.3,0,0,1-.3-.3l0-1.8a.3.3,0,0,1,.3-.3H314.5A.3.3,0,0,1,314.8,86.675Z" transform="translate(-295.596 -76.772)"/></g></g></g></svg>