<svg xmlns="http://www.w3.org/2000/svg" width="64.223" height="21.018" viewBox="0 0 64.223 21.018"><defs><style>.a{fill:none;}.b{fill:#ccc;}</style></defs><rect class="a" width="64.223" height="21.018"/><g transform="translate(0.585)"><rect class="a" width="62.052" height="21.018" transform="translate(0 0.001)"/><g transform="translate(1.001)"><rect class="a" width="62.052" height="21.018"/><g transform="translate(1.001 0.906)"><path class="b" d="M338.172,129.574l-3.13,3.131a.448.448,0,0,1-.764-.316V130.6h-2.534a.447.447,0,0,1-.448-.448v-1.789a.447.447,0,0,1,.448-.448h2.534v-1.789a.448.448,0,0,1,.764-.317l3.13,3.131A.451.451,0,0,1,338.172,129.574Z" transform="translate(-305.509 -119.557)"/><g transform="translate(0 0.799)"><path class="b" d="M319.283,131.68v1.15a.577.577,0,0,1-.576.575h-1.725a3.451,3.451,0,1,1-6.9,0h-4.6a3.451,3.451,0,1,1-6.9,0H298a1.725,1.725,0,0,1-1.725-1.725v-11.5A1.726,1.726,0,0,1,298,118.449h11.5a1.726,1.726,0,0,1,1.726,1.726V121.9h1.585a1.725,1.725,0,0,1,1.219.507L317.626,126a1.726,1.726,0,0,1,.507,1.219V131.1h.575A.578.578,0,0,1,319.283,131.68Zm-15.532,1.725a1.726,1.726,0,1,0-1.726,1.726A1.726,1.726,0,0,0,303.752,133.405Zm12.655-6.187-3.592-3.592H311.23v4.027h5.177Zm-1.15,6.187a1.726,1.726,0,1,0-1.726,1.726A1.726,1.726,0,0,0,315.257,133.405Z" transform="translate(-296.274 -118.449)"/></g><g transform="translate(36.041 0)"><path class="b" d="M369.232,123.414v12.857a.3.3,0,0,1-.3.3h-3a.3.3,0,0,1-.3-.3v-9.3a1.213,1.213,0,0,0-1.223-1.2H350.047a1.213,1.213,0,0,0-1.223,1.2v9.3a.3.3,0,0,1-.3.3h-3a.3.3,0,0,1-.3-.3V123.414a1.8,1.8,0,0,1,1.107-1.662l10.2-4.251a1.809,1.809,0,0,1,1.384,0l10.207,4.251A1.8,1.8,0,0,1,369.232,123.414Zm-4.8,11.055v1.8a.3.3,0,0,1-.3.3H350.324a.3.3,0,0,1-.3-.3l0-1.8a.3.3,0,0,1,.3-.3h13.8A.3.3,0,0,1,364.43,134.469Zm0-3.6v1.8a.3.3,0,0,1-.3.3H350.336a.3.3,0,0,1-.3-.3l0-1.8a.3.3,0,0,1,.3-.3h13.79A.3.3,0,0,1,364.43,130.869Zm0-3.6v1.8a.3.3,0,0,1-.3.3H350.343a.3.3,0,0,1-.3-.3l0-1.8a.3.3,0,0,1,.3-.3H364.13A.3.3,0,0,1,364.43,127.267Z" transform="translate(-345.223 -117.364)"/></g></g></g></g></svg>