<svg xmlns="http://www.w3.org/2000/svg" width="617.961" height="653.096" viewBox="0 0 617.961 653.096"><defs><style>.a,.b{fill:#666;}.a{font-size:211px;font-family:HelveticaNeue, Helvetica Neue;}.b{font-size:28px;font-family:Roboto-Light, Roboto;font-weight:300;}.c{fill:#aaa;}.d{fill:#dbdbdb;}.e,.g{fill:none;stroke-linecap:round;}.e{stroke:#4c4c4c;stroke-miterlimit:10;}.f{fill:#848484;}.g{stroke:#848484;stroke-linejoin:round;}</style></defs><g transform="translate(-391.001 -166)"><text class="a" transform="translate(391.001 760)"><tspan x="0" y="0">404</tspan></text><text class="b" transform="translate(394.645 811.096)"><tspan x="0" y="0">A página não foi encontrada. </tspan></text><g transform="translate(923.934 26.218)"><g transform="translate(-405.503 139.782)"><g transform="translate(0 0)"><path class="c" d="M-364.808,214.13a1.042,1.042,0,0,1-.531-.145l-28.388-18.074a1.058,1.058,0,0,1-.383-1.448,1.058,1.058,0,0,1,1.447-.381l28.39,18.074a1.058,1.058,0,0,1,.381,1.448A1.06,1.06,0,0,1-364.808,214.13Z" transform="translate(414.369 -97.102)"/><path class="c" d="M-364.4,265.457a1.046,1.046,0,0,1-.524-.139l-28.7-16.134a1.059,1.059,0,0,1-.393-1.445,1.063,1.063,0,0,1,1.445-.393l28.7,16.134a1.06,1.06,0,0,1,.393,1.445A1.06,1.06,0,0,1-364.4,265.457Z" transform="translate(414.444 -55.12)"/><path class="c" d="M-375.37,248.5a1.061,1.061,0,0,1-.527-.141l-29.075-17.627a1.059,1.059,0,0,1-.39-1.445,1.061,1.061,0,0,1,1.447-.392l29.075,17.627a1.058,1.058,0,0,1,.388,1.447A1.056,1.056,0,0,1-375.37,248.5Z" transform="translate(405.503 -69.66)"/><path class="c" d="M-395.591,396.388a1.028,1.028,0,0,1-.274-.036,1.061,1.061,0,0,1-.751-1.3l37.234-139.226a1.062,1.062,0,0,1,1.3-.749,1.059,1.059,0,0,1,.749,1.3L-394.568,395.6A1.06,1.06,0,0,1-395.591,396.388Z" transform="translate(412.479 -48.942)"/><path class="c" d="M-393.184,255.464a1.056,1.056,0,0,1-.651-.223,1.059,1.059,0,0,1-.184-1.486L-383,239.647a1.061,1.061,0,0,1,1.488-.184,1.06,1.06,0,0,1,.182,1.486l-11.016,14.108A1.056,1.056,0,0,1-393.184,255.464Z" transform="translate(414.377 -61.399)"/><path class="c" d="M-393.2,238.734a1.048,1.048,0,0,1-.644-.218,1.058,1.058,0,0,1-.195-1.484l35.355-45.981,20.418-50.607a1.06,1.06,0,0,1,1.377-.585,1.059,1.059,0,0,1,.587,1.377l-20.472,50.743a1.045,1.045,0,0,1-.143.249l-35.442,46.094A1.056,1.056,0,0,1-393.2,238.734Z" transform="translate(414.369 -139.782)"/><path class="c" d="M-404.444,252.977a1.05,1.05,0,0,1-.651-.225,1.057,1.057,0,0,1-.182-1.486l39.088-50.146a1.059,1.059,0,0,1,1.488-.182,1.06,1.06,0,0,1,.182,1.486l-39.09,50.146A1.055,1.055,0,0,1-404.444,252.977Z" transform="translate(405.503 -91.762)"/></g><path class="c" d="M-347.366,259.788a.857.857,0,0,1-.425-.113l-21.293-12.236a.858.858,0,0,1-.315-1.169.854.854,0,0,1,1.169-.315l21.293,12.234a.858.858,0,0,1,.315,1.169A.855.855,0,0,1-347.366,259.788Z" transform="translate(433.867 -56.196)"/><path class="c" d="M-355.222,248.145a1.058,1.058,0,0,1-.531-.143l-22.421-13.055a1.062,1.062,0,0,1-.383-1.448,1.062,1.062,0,0,1,1.448-.383l22.421,13.055a1.059,1.059,0,0,1,.381,1.448A1.056,1.056,0,0,1-355.222,248.145Z" transform="translate(426.627 -66.337)"/><path class="c" d="M-363.306,233.533a1.054,1.054,0,0,1-.529-.141L-393.627,216.2a1.061,1.061,0,0,1-.388-1.447,1.06,1.06,0,0,1,1.447-.388l29.792,17.189a1.059,1.059,0,0,1,.388,1.447A1.057,1.057,0,0,1-363.306,233.533Z" transform="translate(414.445 -81.111)"/><path class="c" d="M-357.636,216.893a1.047,1.047,0,0,1-.542-.15l-18.8-11.228a1.059,1.059,0,0,1-.367-1.452,1.058,1.058,0,0,1,1.452-.365l18.8,11.226a1.058,1.058,0,0,1,.367,1.452A1.059,1.059,0,0,1-357.636,216.893Z" transform="translate(427.578 -89.527)"/><path class="c" d="M-351.427,196.572a1.041,1.041,0,0,1-.526-.141l-28.93-16.633a1.06,1.06,0,0,1-.39-1.447,1.061,1.061,0,0,1,1.447-.39l28.93,16.633a1.064,1.064,0,0,1,.39,1.447A1.062,1.062,0,0,1-351.427,196.572Z" transform="translate(424.489 -109.804)"/><path class="c" d="M-350.474,249.934a.859.859,0,0,1-.426-.114l-14.241-8.184a.857.857,0,0,1-.316-1.168.857.857,0,0,1,1.169-.316l14.242,8.184a.858.858,0,0,1,.315,1.169A.855.855,0,0,1-350.474,249.934Z" transform="translate(436.975 -60.769)"/><path class="c" d="M-343.475,239.366a.865.865,0,0,1-.426-.114l-30.121-17.309a.857.857,0,0,1-.315-1.168.858.858,0,0,1,1.169-.317l30.121,17.309a.856.856,0,0,1,.315,1.168A.853.853,0,0,1-343.475,239.366Z" transform="translate(429.977 -76.289)"/><path class="c" d="M-347.473,228.013a.858.858,0,0,1-.426-.113l-21.048-12.1a.856.856,0,0,1-.316-1.168.857.857,0,0,1,1.169-.317l21.05,12.1a.856.856,0,0,1,.315,1.168A.855.855,0,0,1-347.473,228.013Z" transform="translate(433.975 -81.127)"/><path class="c" d="M-348.192,205.321a.857.857,0,0,1-.425-.113l-19.417-11.16a.854.854,0,0,1-.315-1.168.857.857,0,0,1,1.169-.316l19.417,11.158a.858.858,0,0,1,.315,1.169A.855.855,0,0,1-348.192,205.321Z" transform="translate(434.694 -98.272)"/><path class="c" d="M-350.641,197.662a.859.859,0,0,1-.42-.111l-13.861-7.844a.856.856,0,0,1-.322-1.168.858.858,0,0,1,1.164-.324l13.863,7.846a.854.854,0,0,1,.322,1.166A.854.854,0,0,1-350.641,197.662Z" transform="translate(437.143 -101.697)"/><path class="c" d="M-343.578,186.652a.852.852,0,0,1-.415-.109l-29.886-16.667a.855.855,0,0,1-.331-1.164.854.854,0,0,1,1.164-.331l29.886,16.667a.855.855,0,0,1,.331,1.164A.857.857,0,0,1-343.578,186.652Z" transform="translate(430.079 -117.329)"/><path class="c" d="M-333.176,159.142A1.06,1.06,0,0,1-333.7,159l-28.749-17.243a1.057,1.057,0,0,1-.392-1.445,1.061,1.061,0,0,1,1.445-.392l28.749,17.243a1.057,1.057,0,0,1,.392,1.445A1.058,1.058,0,0,1-333.176,159.142Z" transform="translate(439.013 -139.782)"/><path class="c" d="M-392.086,378.016a.857.857,0,0,1-.823-.617.856.856,0,0,1,.583-1.06l45.987-13.348-26.641-60.322a.854.854,0,0,1-.011-.663.854.854,0,0,1,.465-.472l38.307-16.027-18.9-36.844a.856.856,0,0,1,.37-1.152.855.855,0,0,1,1.153.37l19.324,37.667a.855.855,0,0,1,.041.685.846.846,0,0,1-.474.5l-38.355,16.048,26.684,60.418a.865.865,0,0,1-.007.708.851.851,0,0,1-.538.46l-46.925,13.62A.84.84,0,0,1-392.086,378.016Z" transform="translate(415.401 -54.954)"/><path class="c" d="M-355.647,397.069a.855.855,0,0,1-.756-.452l-31.215-58.344a.856.856,0,0,1-.059-.672.856.856,0,0,1,.445-.5l43.371-20.62-24.088-49.835a.85.85,0,0,1-.025-.692.856.856,0,0,1,.5-.483l34.165-12.728a.858.858,0,0,1,1.1.5.857.857,0,0,1-.5,1.1L-366,266.74l24.054,49.767a.853.853,0,0,1,.038.656.856.856,0,0,1-.44.488l-43.337,20.6,30.791,57.552a.855.855,0,0,1-.351,1.159A.84.84,0,0,1-355.647,397.069Z" transform="translate(419.518 -50.803)"/><path class="c" d="M-372.976,178.86a.57.57,0,0,1-.5-.29.573.573,0,0,1,.216-.778l37.9-21.4a.57.57,0,0,1,.778.216.571.571,0,0,1-.215.778l-37.9,21.4A.563.563,0,0,1-372.976,178.86Z" transform="translate(430.689 -126.748)"/><path class="c" d="M-343.671,170.191a.572.572,0,0,1-.483-.263l-18.462-29a.571.571,0,0,1,.175-.789.572.572,0,0,1,.787.175l18.464,29a.57.57,0,0,1-.175.789A.575.575,0,0,1-343.671,170.191Z" transform="translate(439.232 -139.566)"/><path class="c" d="M-301.933,197.487a.549.549,0,0,1-.284-.077l-30.532-17.649a.57.57,0,0,1-.209-.78.573.573,0,0,1,.78-.207l30.532,17.649a.568.568,0,0,1,.207.78A.569.569,0,0,1-301.933,197.487Z" transform="translate(462.616 -109.112)"/><path class="c" d="M-319.6,191.972a.581.581,0,0,1-.282-.075l-15.6-8.889a.57.57,0,0,1-.213-.778.576.576,0,0,1,.78-.215l15.6,8.889a.575.575,0,0,1,.213.78A.575.575,0,0,1-319.6,191.972Z" transform="translate(460.46 -106.555)"/><path class="c" d="M-316.7,173.09a.577.577,0,0,1-.283-.075l-22.9-13.109a.57.57,0,0,1-.213-.78.571.571,0,0,1,.778-.213l22.9,13.11a.568.568,0,0,1,.211.778A.57.57,0,0,1-316.7,173.09Z" transform="translate(456.988 -124.762)"/><path class="c" d="M-320.8,222.712a.576.576,0,0,1-.282-.075l-14.323-8.163a.572.572,0,0,1-.213-.778.572.572,0,0,1,.78-.215l14.321,8.163a.569.569,0,0,1,.213.778A.57.57,0,0,1-320.8,222.712Z" transform="translate(460.518 -81.757)"/><path class="c" d="M-321.923,174.08a.555.555,0,0,1-.277-.073l-29.888-16.667a.57.57,0,0,1-.22-.776.57.57,0,0,1,.776-.22l29.887,16.667a.571.571,0,0,1,.222.776A.571.571,0,0,1-321.923,174.08Z" transform="translate(447.369 -126.786)"/><path class="c" d="M-298.151,230.874a.566.566,0,0,1-.284-.077l-36.908-22.108a.57.57,0,0,1-.209-.78.569.569,0,0,1,.778-.209l36.908,22.11a.569.569,0,0,1,.211.778A.57.57,0,0,1-298.151,230.874Z" transform="translate(460.571 -86.315)"/><path class="c" d="M-286.909,200.908a.557.557,0,0,1-.284-.077L-325,178.634a.57.57,0,0,1-.209-.78.571.571,0,0,1,.78-.207l37.808,22.2a.57.57,0,0,1,.207.78A.569.569,0,0,1-286.909,200.908Z" transform="translate(468.722 -110.001)"/><path class="c" d="M-298.083,178.619a.557.557,0,0,1-.284-.077L-335.5,156.9a.57.57,0,0,1-.209-.78.57.57,0,0,1,.78-.207l37.128,21.638a.571.571,0,0,1,.207.78A.567.567,0,0,1-298.083,178.619Z" transform="translate(460.451 -127.128)"/><path class="c" d="M-351.809,157.753a.572.572,0,0,1-.572-.554.573.573,0,0,1,.556-.587l29.681-.774a.571.571,0,0,1,.585.554.57.57,0,0,1-.556.587l-29.679.774Z" transform="translate(447.369 -127.128)"/><path class="c" d="M-321.07,179.089c-.02,0-.041,0-.061,0l-8.722-.916a.569.569,0,0,1-.508-.628.568.568,0,0,1,.626-.508l8.722.915a.569.569,0,0,1,.508.628A.568.568,0,0,1-321.07,179.089Z" transform="translate(464.72 -110.426)"/><path class="c" d="M-393.253,257.541a.569.569,0,0,1-.494-.286.57.57,0,0,1,.207-.78l35.589-20.529a.57.57,0,0,1,.78.209.57.57,0,0,1-.209.78l-35.587,20.529A.577.577,0,0,1-393.253,257.541Z" transform="translate(414.707 -64.054)"/><rect class="c" width="1.712" height="9.3" transform="translate(56.118 162.769)"/><rect class="c" width="1.712" height="6.194" transform="translate(56.118 112.366)"/><path class="c" d="M-373.588,191.944a.576.576,0,0,1-.561-.458.576.576,0,0,1,.443-.681l38.418-8.113-18.353-41.835a.576.576,0,0,1,.3-.758.576.576,0,0,1,.756.3l18.637,42.482a.579.579,0,0,1-.014.5.579.579,0,0,1-.393.3l-39.108,8.259A.56.56,0,0,1-373.588,191.944Z" transform="translate(430.203 -139.569)"/><path class="c" d="M-356.771,203.681a.576.576,0,0,1-.517-.32l-16.815-34.1a.574.574,0,0,1,.263-.769.577.577,0,0,1,.771.261l16.814,34.1a.575.575,0,0,1-.261.771A.586.586,0,0,1-356.771,203.681Z" transform="translate(430.203 -117.204)"/><path class="c" d="M-392.757,201.408a.575.575,0,0,1-.556-.434.575.575,0,0,1,.415-.7l50.725-12.864a.574.574,0,0,1,.7.417.577.577,0,0,1-.417.7l-50.723,12.864A.56.56,0,0,1-392.757,201.408Z" transform="translate(415.096 -102.259)"/><path class="c" d="M-403.1,253.33a.571.571,0,0,1-.56-.465.573.573,0,0,1,.456-.667l46.2-8.654-10.2-41.922a.57.57,0,0,1,.42-.69.568.568,0,0,1,.688.42l10.339,42.509a.569.569,0,0,1-.077.443.565.565,0,0,1-.374.252l-46.8,8.764A.529.529,0,0,1-403.1,253.33Z" transform="translate(406.951 -91.602)"/><path class="c" d="M-370.537,203.149a.57.57,0,0,1-.565-.5.569.569,0,0,1,.5-.633l22.051-2.643a.571.571,0,0,1,.635.5.571.571,0,0,1-.5.635l-22.051,2.641A.456.456,0,0,1-370.537,203.149Z" transform="translate(432.611 -92.824)"/><path class="c" d="M-393.4,253.945a.57.57,0,0,1-.554-.435.571.571,0,0,1,.42-.69l50.212-12.257a.572.572,0,0,1,.688.418.569.569,0,0,1-.418.69l-50.212,12.258A.589.589,0,0,1-393.4,253.945Z" transform="translate(414.592 -60.368)"/><path class="c" d="M-361.381,250.143a.575.575,0,0,1-.524-.341l-8.7-19.819a.572.572,0,0,1,.292-.753.575.575,0,0,1,.753.293l8.706,19.819a.571.571,0,0,1-.293.753A.578.578,0,0,1-361.381,250.143Z" transform="translate(432.964 -69.324)"/><g transform="translate(29.306 17.284)"><path class="d" d="M-371.369,432.618a1.045,1.045,0,0,1-.166-.013,1.059,1.059,0,0,1-.882-1.211L-346,262.984a1.054,1.054,0,0,1,.515-.753l38.568-22.267a1.059,1.059,0,0,1,.953-.054,1.062,1.062,0,0,1,.608.737l30.691,135.442a1.058,1.058,0,0,1-.8,1.266,1.057,1.057,0,0,1-1.266-.8L-307.1,242.517l-36.885,21.295-26.335,167.911A1.061,1.061,0,0,1-371.369,432.618Z" transform="translate(402.262 -78.224)"/><path class="d" d="M-356.6,323.188a1.059,1.059,0,0,1-.529-.143,1.057,1.057,0,0,1-.529-.916V188.307a1.059,1.059,0,0,1,.529-.917l38.568-22.266a1.056,1.056,0,0,1,1.058,0,1.057,1.057,0,0,1,.529.916V299.862a1.06,1.06,0,0,1-.529.917l-38.568,22.266A1.05,1.05,0,0,1-356.6,323.188Zm1.06-134.269V320.3l36.449-21.044V167.875Z" transform="translate(413.904 -137.205)"/><path class="d" d="M-356.706,201.3a.841.841,0,0,1-.551-.2.845.845,0,0,1-.238-.946l19.4-50.16a.846.846,0,0,1,.688-.535.841.841,0,0,1,.794.354l19.4,27.759a.848.848,0,0,1,.132.667.848.848,0,0,1-.4.549l-38.8,22.4A.859.859,0,0,1-356.706,201.3Zm19.619-49.219-17.965,46.443,35.928-20.742Z" transform="translate(413.988 -149.448)"/><path class="d" d="M-377.408,237a.844.844,0,0,1-.64-.291.847.847,0,0,1-.034-1.078l37.044-48.1a.907.907,0,0,1,.249-.218l38.568-22.266a.87.87,0,0,1,.545-.105l37.046,5.32a.849.849,0,0,1,.713.681.849.849,0,0,1-.408.9l-112.658,65.042A.854.854,0,0,1-377.408,237Zm37.616-48.3-34.321,44.56L-267.3,171.6l-34.321-4.928Z" transform="translate(397.668 -137.238)"/><path class="d" d="M-377.408,289.032a.844.844,0,0,1-.64-.291.847.847,0,0,1-.034-1.078l37.044-48.1a.872.872,0,0,1,.249-.216l38.568-22.267a.859.859,0,0,1,.545-.105l37.046,5.32a.849.849,0,0,1,.713.681.849.849,0,0,1-.408.9l-112.658,65.042A.854.854,0,0,1-377.408,289.032Zm37.616-48.3-34.321,44.56L-267.3,223.63l-34.321-4.928Z" transform="translate(397.668 -96.235)"/><path class="d" d="M-388.263,282.558a.852.852,0,0,1-.64-.29.85.85,0,0,1-.032-1.08l56.454-73.021a.864.864,0,0,1,.247-.216l38.568-22.267a.841.841,0,0,1,.542-.105l56.456,7.832a.849.849,0,0,1,.717.679.852.852,0,0,1-.41.9l-151.476,87.455A.848.848,0,0,1-388.263,282.558Zm57.026-73.218-53.713,69.473,145.591-84.059-53.709-7.451Z" transform="translate(389.114 -120.981)"/><path class="d" d="M-353.269,244.8a5.807,5.807,0,0,1-2.636,4.545c-1.456.84-2.634.168-2.634-1.5a5.805,5.805,0,0,1,2.634-4.545C-354.45,242.461-353.269,243.133-353.269,244.8Z" transform="translate(413.21 -75.766)"/><path class="d" d="M-331.739,232.374a5.807,5.807,0,0,1-2.636,4.545c-1.456.84-2.636.168-2.636-1.5a5.807,5.807,0,0,1,2.636-4.545C-332.919,230.031-331.739,230.7-331.739,232.374Z" transform="translate(430.177 -85.563)"/><path class="d" d="M-353.269,252.838a5.807,5.807,0,0,1-2.636,4.545c-1.456.84-2.634.168-2.634-1.5a5.806,5.806,0,0,1,2.634-4.547C-354.45,250.494-353.269,251.168-353.269,252.838Z" transform="translate(413.21 -69.435)"/><path class="d" d="M-331.739,240.408a5.807,5.807,0,0,1-2.636,4.545c-1.456.84-2.636.168-2.636-1.5a5.81,5.81,0,0,1,2.636-4.547C-332.919,238.064-331.739,238.738-331.739,240.408Z" transform="translate(430.177 -79.232)"/><path class="d" d="M-353.269,230a5.807,5.807,0,0,1-2.636,4.545c-1.456.84-2.634.168-2.634-1.5a5.8,5.8,0,0,1,2.634-4.545C-354.45,227.662-353.269,228.334-353.269,230Z" transform="translate(413.21 -87.43)"/><path class="d" d="M-331.739,217.575a5.81,5.81,0,0,1-2.636,4.547c-1.456.84-2.636.166-2.636-1.5a5.807,5.807,0,0,1,2.636-4.545C-332.919,215.232-331.739,215.9-331.739,217.575Z" transform="translate(430.177 -97.226)"/><path class="d" d="M-353.269,221.126a5.807,5.807,0,0,1-2.636,4.545c-1.456.84-2.634.168-2.634-1.5a5.805,5.805,0,0,1,2.634-4.545C-354.45,218.783-353.269,219.455-353.269,221.126Z" transform="translate(413.21 -94.427)"/><path class="d" d="M-331.739,208.7a5.807,5.807,0,0,1-2.636,4.545c-1.456.84-2.636.168-2.636-1.5a5.807,5.807,0,0,1,2.636-4.545C-332.919,206.353-331.739,207.026-331.739,208.7Z" transform="translate(430.177 -104.224)"/><path class="d" d="M-353.269,198.928a5.807,5.807,0,0,1-2.636,4.545c-1.456.84-2.634.168-2.634-1.5a5.808,5.808,0,0,1,2.634-4.547C-354.45,196.584-353.269,197.258-353.269,198.928Z" transform="translate(413.21 -111.922)"/><path class="d" d="M-331.739,186.5a5.807,5.807,0,0,1-2.636,4.545c-1.456.84-2.636.168-2.636-1.5A5.807,5.807,0,0,1-334.374,185C-332.919,184.155-331.739,184.828-331.739,186.5Z" transform="translate(430.177 -121.718)"/><path class="d" d="M-353.269,192.8a5.807,5.807,0,0,1-2.636,4.545c-1.456.84-2.634.168-2.634-1.5a5.8,5.8,0,0,1,2.634-4.545C-354.45,190.454-353.269,191.126-353.269,192.8Z" transform="translate(413.21 -116.754)"/><path class="d" d="M-331.739,180.367a5.807,5.807,0,0,1-2.636,4.545c-1.456.84-2.636.168-2.636-1.5a5.807,5.807,0,0,1,2.636-4.545C-332.919,178.024-331.739,178.7-331.739,180.367Z" transform="translate(430.177 -126.55)"/><path class="d" d="M-356.694,323.007a.843.843,0,0,1-.44-.125.845.845,0,0,1-.281-1.162l38.124-62.441L-357.246,226.4a.845.845,0,0,1-.157-1.1l38.566-59.975a.844.844,0,0,1,1.168-.254.847.847,0,0,1,.256,1.169L-355.585,225.6l37.942,32.864a.847.847,0,0,1,.17,1.08l-38.5,63.052A.846.846,0,0,1-356.694,323.007Z" transform="translate(413.998 -137.236)"/><path class="d" d="M-318.2,307.4a.816.816,0,0,1-.367-.086l-38.5-18.6a.846.846,0,0,1-.433-.486.844.844,0,0,1,.043-.649l38.09-76.978-37.649-15.142a.845.845,0,0,1-.508-.588.846.846,0,0,1,.19-.755l29.289-33.261-14.339-2.632a.847.847,0,0,1-.678-.985.854.854,0,0,1,.983-.68l15.807,2.9a.846.846,0,0,1,.646.556.842.842,0,0,1-.164.835l-29.484,33.484,37.386,15.036a.848.848,0,0,1,.476.483.847.847,0,0,1-.034.676l-38.117,77.032,37.727,18.23a.844.844,0,0,1,.393,1.128A.844.844,0,0,1-318.2,307.4Z" transform="translate(413.998 -143.855)"/><path class="d" d="M-365.088,258.209a1.06,1.06,0,0,1-1.059-1.059V241.386a1.06,1.06,0,0,1,1.059-1.06,1.06,1.06,0,0,1,1.059,1.06V257.15A1.059,1.059,0,0,1-365.088,258.209Z" transform="translate(407.214 -77.826)"/><path class="d" d="M-364.054,205.445a1.059,1.059,0,0,1-1.059-1.059V188.623a1.058,1.058,0,0,1,1.059-1.059A1.058,1.058,0,0,1-363,188.623v15.764A1.059,1.059,0,0,1-364.054,205.445Z" transform="translate(408.029 -119.408)"/><path class="d" d="M-326.823,183.122a.57.57,0,0,1-.57-.57V166.787a.57.57,0,0,1,.57-.57.571.571,0,0,1,.57.57v15.764A.571.571,0,0,1-326.823,183.122Z" transform="translate(437.756 -136.232)"/><path class="d" d="M-327.1,235.447a.571.571,0,0,1-.57-.57V219.112a.571.571,0,0,1,.57-.57.571.571,0,0,1,.57.57v15.764A.571.571,0,0,1-327.1,235.447Z" transform="translate(437.538 -94.994)"/><path class="d" d="M-365.712,239.269a1.059,1.059,0,0,1-1.06-1.059V210.953a1.059,1.059,0,0,1,1.06-1.059c.585,0,1.059.109,1.059.694v27.623A1.058,1.058,0,0,1-365.712,239.269Z" transform="translate(406.721 -101.81)"/><path class="d" d="M-376.352,239.146a1.058,1.058,0,0,1-1.059-1.059V225.046a1.06,1.06,0,0,1,1.059-1.06,1.06,1.06,0,0,1,1.06,1.06v13.041A1.059,1.059,0,0,1-376.352,239.146Z" transform="translate(398.336 -90.704)"/><path class="d" d="M-315.493,203.181a.57.57,0,0,1-.57-.57V189.568a.57.57,0,0,1,.57-.57.571.571,0,0,1,.57.57v13.042A.571.571,0,0,1-315.493,203.181Z" transform="translate(446.686 -118.278)"/><path class="d" d="M-326.547,215.986a.57.57,0,0,1-.57-.57V187.8a.57.57,0,0,1,.57-.57.571.571,0,0,1,.57.57v27.616A.571.571,0,0,1-326.547,215.986Z" transform="translate(437.974 -119.672)"/><path class="d" d="M-369.208,398.147a1.054,1.054,0,0,1-.747-.308,1.061,1.061,0,0,1,0-1.5l78.535-78.906-65.209.556a1.093,1.093,0,0,1-.967-.612,1.058,1.058,0,0,1,.154-1.135l52.284-61.078-41.52-.774a1.06,1.06,0,0,1-1.039-1.078,1.086,1.086,0,0,1,1.08-1.039l43.762.815a1.067,1.067,0,0,1,.948.626,1.064,1.064,0,0,1-.163,1.123l-52.231,61.016,65.459-.558h.009a1.062,1.062,0,0,1,.976.647,1.063,1.063,0,0,1-.225,1.159l-80.354,80.731A1.046,1.046,0,0,1-369.208,398.147Z" transform="translate(403.966 -68.409)"/><path class="d" d="M-365.814,370.258a1.056,1.056,0,0,1-.924-.545,1.057,1.057,0,0,1,.125-1.207l65.157-75.451-52.272-.232a1.059,1.059,0,0,1-.957-.613,1.057,1.057,0,0,1,.152-1.128L-311.58,240.2a1.058,1.058,0,0,1,1.493-.125,1.057,1.057,0,0,1,.125,1.491l-41.491,49.152,52.313.232a1.057,1.057,0,0,1,.958.622,1.058,1.058,0,0,1-.163,1.13l-65.134,75.07,78.875-12.4a1.059,1.059,0,0,1,1.211.882,1.059,1.059,0,0,1-.88,1.211l-81.375,12.785A1.291,1.291,0,0,1-365.814,370.258Z" transform="translate(406.643 -78.224)"/></g></g><path class="e" d="M-249.2,283.542c44.656,32,69.216,37.574,153.568,51.355" transform="translate(123.182 113.299)"/><path class="f" d="M-265.52,269.455a.845.845,0,0,0,.719-.384.925.925,0,0,0,.046-.908.844.844,0,0,0-.721-.46l-25.845-1.368a.858.858,0,0,0-.669.259.884.884,0,0,0-.241.57.9.9,0,0,0,.179.6.849.849,0,0,0,.638.327l25.845,1.366Z" transform="translate(89.27 99.737)"/><path class="f" d="M-261.874,276.839a.856.856,0,0,0-1.175-.374.853.853,0,0,0-.388,1.17L-251.7,300.7a.842.842,0,0,0,.756.477.91.91,0,0,0,.417-.1.853.853,0,0,0,.39-1.17Z" transform="translate(111.886 107.642)"/><path class="f" d="M-262.544,270.2a.916.916,0,0,0,.76.5l.046,0a.85.85,0,0,0,.715-.4l14.1-21.7a.852.852,0,0,0-.263-1.2.855.855,0,0,0-1.207.247l-14.106,21.7A.848.848,0,0,0-262.544,270.2Z" transform="translate(112.594 84.699)"/><path class="f" d="M-260.044,245.786a.921.921,0,0,0-.885-.2.849.849,0,0,0-.576.633l-3.27,14.391a.852.852,0,0,0,.665,1.037.956.956,0,0,0,.211.025.846.846,0,0,0,.835-.674l3.269-14.391A.847.847,0,0,0-260.044,245.786Z" transform="translate(110.89 83.355)"/><path class="f" d="M-273.793,272.96a.924.924,0,0,0-.268-.867.854.854,0,0,0-.837-.184l-14.1,4.365a.846.846,0,0,0-.586.624.918.918,0,0,0,.268.867.838.838,0,0,0,.572.224.9.9,0,0,0,.265-.039l14.1-4.365A.846.846,0,0,0-273.793,272.96Z" transform="translate(91.341 104.099)"/><path class="f" d="M-268.662,281.672a.886.886,0,0,0-.615.077.849.849,0,0,0-.431.574l-3.269,14.389a.846.846,0,0,0,.247.821.916.916,0,0,0,.624.241.873.873,0,0,0,.261-.039.848.848,0,0,0,.578-.635L-268,282.71a.84.84,0,0,0-.141-.7A.889.889,0,0,0-268.662,281.672Z" transform="translate(104.427 111.806)"/><path class="f" d="M-263.819,296.31a.9.9,0,0,0,.556-.277.852.852,0,0,0,.215-.685l-2.158-18.262a.856.856,0,0,0-.973-.756.853.853,0,0,0-.771.962l2.16,18.262a.846.846,0,0,0,.368.615.885.885,0,0,0,.493.148A.747.747,0,0,0-263.819,296.31Z" transform="translate(109.19 107.608)"/><path class="f" d="M-264.69,288.938a.851.851,0,0,0-.769.962l.4,3.381a.847.847,0,0,0,.858.763.8.8,0,0,0,.114-.007.888.888,0,0,0,.554-.277.84.84,0,0,0,.215-.685l-.4-3.381A.871.871,0,0,0-264.69,288.938Z" transform="translate(110.365 117.547)"/><path class="f" d="M-241.82,278.41l-16.9-7.263a.854.854,0,0,0-.851.095.924.924,0,0,0-.359.835.85.85,0,0,0,.519.681l16.9,7.261a.859.859,0,0,0,.349.073.835.835,0,0,0,.5-.166.922.922,0,0,0,.358-.835A.841.841,0,0,0-241.82,278.41Z" transform="translate(114.726 103.473)"/><path class="f" d="M-243.922,277.506l-3.129-1.345a.843.843,0,0,0-.851.093.924.924,0,0,0-.359.835.847.847,0,0,0,.517.683l3.129,1.345a.907.907,0,0,0,.35.073.837.837,0,0,0,.5-.168.919.919,0,0,0,.359-.833A.849.849,0,0,0-243.922,277.506Z" transform="translate(123.919 107.424)"/><path class="f" d="M-260.956,268.182a.915.915,0,0,0,.542.728.835.835,0,0,0,.333.07.869.869,0,0,0,.519-.177l14.736-11a.847.847,0,0,0,.345-.783.923.923,0,0,0-.545-.728.846.846,0,0,0-.849.107l-14.734,11A.848.848,0,0,0-260.956,268.182Z" transform="translate(113.914 91.768)"/><path class="f" d="M-249.909,257.436a.869.869,0,0,0,.52-.179l2.729-2.037a.848.848,0,0,0,.345-.785.921.921,0,0,0-.544-.728.853.853,0,0,0-.851.107l-2.729,2.037a.854.854,0,0,0-.168,1.221A.868.868,0,0,0-249.909,257.436Z" transform="translate(121.931 89.733)"/><path class="f" d="M-268.979,248.781a.929.929,0,0,0-.9.105.854.854,0,0,0-.333.79l2.158,18.262a.847.847,0,0,0,.858.764c.037,0,.077,0,.114-.005a.851.851,0,0,0,.769-.962l-2.158-18.262A.847.847,0,0,0-268.979,248.781Z" transform="translate(106.617 85.847)"/><path class="f" d="M-269.457,249.537c.036,0,.073,0,.109-.007a.852.852,0,0,0,.769-.962l-.4-3.381a.852.852,0,0,0-.973-.758.89.89,0,0,0-.554.279.841.841,0,0,0-.216.683l.4,3.383A.86.86,0,0,0-269.457,249.537Z" transform="translate(106.218 82.467)"/><path class="e" d="M-314.708,168.455s-2.312,75.43,57.727,149.983" transform="translate(71.547 22.598)"/><path class="e" d="M-378.141,205.079s33.647,264.873,280.207,260.569" transform="translate(21.564 51.461)"/><g transform="translate(-97.455 418.942)"><path class="c" d="M-192.532,370.25a1.041,1.041,0,0,1-.531-.145l-28.388-18.074a1.056,1.056,0,0,1-.383-1.447,1.058,1.058,0,0,1,1.447-.383L-192,368.277a1.056,1.056,0,0,1,.383,1.447A1.057,1.057,0,0,1-192.532,370.25Z" transform="translate(242.093 -253.221)"/><path class="c" d="M-192.124,421.577a1.057,1.057,0,0,1-.526-.14l-28.7-16.132a1.059,1.059,0,0,1-.393-1.445,1.059,1.059,0,0,1,1.445-.393l28.7,16.134a1.058,1.058,0,0,1,.393,1.443A1.06,1.06,0,0,1-192.124,421.577Z" transform="translate(242.168 -211.239)"/><path class="c" d="M-203.094,404.621a1.042,1.042,0,0,1-.527-.141L-232.7,386.853a1.059,1.059,0,0,1-.39-1.445,1.06,1.06,0,0,1,1.447-.39l29.075,17.627a1.057,1.057,0,0,1,.388,1.445A1.053,1.053,0,0,1-203.094,404.621Z" transform="translate(233.227 -225.78)"/><path class="c" d="M-223.315,552.508a1.027,1.027,0,0,1-.274-.036,1.06,1.06,0,0,1-.751-1.3l37.234-139.226a1.063,1.063,0,0,1,1.3-.749,1.06,1.06,0,0,1,.749,1.3l-37.232,139.226A1.062,1.062,0,0,1-223.315,552.508Z" transform="translate(240.204 -205.062)"/><path class="c" d="M-220.91,411.586a1.054,1.054,0,0,1-.651-.225,1.06,1.06,0,0,1-.182-1.486l11.017-14.108a1.06,1.06,0,0,1,1.488-.182,1.06,1.06,0,0,1,.182,1.486l-11.017,14.108A1.062,1.062,0,0,1-220.91,411.586Z" transform="translate(242.101 -217.519)"/><path class="c" d="M-220.92,394.856a1.046,1.046,0,0,1-.644-.22,1.058,1.058,0,0,1-.195-1.484l35.355-45.979,20.417-50.607a1.062,1.062,0,0,1,1.379-.586,1.061,1.061,0,0,1,.587,1.379L-184.494,348.1a1.009,1.009,0,0,1-.143.249l-35.442,46.1A1.063,1.063,0,0,1-220.92,394.856Z" transform="translate(242.093 -295.902)"/><path class="c" d="M-232.168,409.1a1.056,1.056,0,0,1-.651-.224,1.059,1.059,0,0,1-.184-1.486l39.09-50.148a1.06,1.06,0,0,1,1.488-.182,1.06,1.06,0,0,1,.182,1.486l-39.09,50.146A1.056,1.056,0,0,1-232.168,409.1Z" transform="translate(233.227 -247.882)"/><path class="c" d="M-175.09,415.91a.86.86,0,0,1-.426-.114l-21.293-12.236a.855.855,0,0,1-.315-1.168.856.856,0,0,1,1.169-.316l21.293,12.236a.858.858,0,0,1,.315,1.168A.855.855,0,0,1-175.09,415.91Z" transform="translate(261.591 -212.315)"/><path class="c" d="M-182.946,404.267a1.042,1.042,0,0,1-.531-.145L-205.9,391.067a1.061,1.061,0,0,1-.383-1.448,1.059,1.059,0,0,1,1.448-.381l22.421,13.055a1.057,1.057,0,0,1,.381,1.447A1.058,1.058,0,0,1-182.946,404.267Z" transform="translate(254.351 -222.457)"/><path class="c" d="M-191.029,389.655a1.073,1.073,0,0,1-.529-.141l-29.792-17.191a1.059,1.059,0,0,1-.388-1.447,1.06,1.06,0,0,1,1.447-.388l29.792,17.191a1.06,1.06,0,0,1,.388,1.447A1.057,1.057,0,0,1-191.029,389.655Z" transform="translate(242.17 -237.231)"/><path class="c" d="M-185.36,373.013a1.047,1.047,0,0,1-.542-.15l-18.8-11.226a1.06,1.06,0,0,1-.367-1.452,1.058,1.058,0,0,1,1.452-.367l18.8,11.228a1.06,1.06,0,0,1,.367,1.452A1.061,1.061,0,0,1-185.36,373.013Z" transform="translate(255.303 -245.647)"/><path class="c" d="M-179.151,352.691a1.041,1.041,0,0,1-.526-.141l-28.93-16.633a1.059,1.059,0,0,1-.39-1.445,1.061,1.061,0,0,1,1.447-.39l28.928,16.633a1.061,1.061,0,0,1,.392,1.445A1.061,1.061,0,0,1-179.151,352.691Z" transform="translate(252.213 -265.923)"/><path class="c" d="M-178.2,406.054a.858.858,0,0,1-.426-.113l-14.24-8.186a.856.856,0,0,1-.316-1.168.857.857,0,0,1,1.169-.316l14.242,8.184a.86.86,0,0,1,.315,1.169A.857.857,0,0,1-178.2,406.054Z" transform="translate(264.699 -216.89)"/><path class="c" d="M-171.2,395.486a.865.865,0,0,1-.426-.114l-30.121-17.307a.858.858,0,0,1-.315-1.169.856.856,0,0,1,1.169-.315l30.121,17.307a.86.86,0,0,1,.315,1.169A.857.857,0,0,1-171.2,395.486Z" transform="translate(257.701 -232.409)"/><path class="c" d="M-175.2,384.135a.858.858,0,0,1-.426-.115l-21.048-12.095a.859.859,0,0,1-.316-1.169.855.855,0,0,1,1.169-.315l21.05,12.095a.86.86,0,0,1,.315,1.169A.857.857,0,0,1-175.2,384.135Z" transform="translate(261.699 -237.247)"/><path class="c" d="M-175.916,361.442a.859.859,0,0,1-.426-.114l-19.417-11.158a.857.857,0,0,1-.315-1.169.858.858,0,0,1,1.169-.315l19.417,11.158a.858.858,0,0,1,.315,1.168A.855.855,0,0,1-175.916,361.442Z" transform="translate(262.418 -254.392)"/><path class="c" d="M-178.365,353.783a.85.85,0,0,1-.42-.111l-13.861-7.846a.856.856,0,0,1-.324-1.166.857.857,0,0,1,1.166-.324l13.861,7.844a.858.858,0,0,1,.324,1.168A.857.857,0,0,1-178.365,353.783Z" transform="translate(264.867 -257.817)"/><path class="c" d="M-171.3,342.772a.849.849,0,0,1-.415-.107L-201.6,326a.855.855,0,0,1-.331-1.164.856.856,0,0,1,1.164-.331l29.886,16.667a.857.857,0,0,1,.331,1.164A.857.857,0,0,1-171.3,342.772Z" transform="translate(257.804 -273.448)"/><path class="c" d="M-160.9,315.261a1.053,1.053,0,0,1-.526-.139l-28.749-17.243a1.058,1.058,0,0,1-.392-1.445,1.061,1.061,0,0,1,1.445-.392l28.749,17.241a1.058,1.058,0,0,1,.392,1.445A1.057,1.057,0,0,1-160.9,315.261Z" transform="translate(266.737 -295.901)"/><path class="c" d="M-219.81,534.138a.857.857,0,0,1-.823-.619.856.856,0,0,1,.583-1.06l45.987-13.348L-200.7,458.79a.854.854,0,0,1-.011-.663.838.838,0,0,1,.465-.472l38.307-16.029-18.9-36.842a.857.857,0,0,1,.37-1.153.855.855,0,0,1,1.153.372L-160,441.669a.85.85,0,0,1,.043.683.854.854,0,0,1-.474.5L-198.786,458.9l26.684,60.418a.858.858,0,0,1-.009.708.848.848,0,0,1-.536.459L-219.573,534.1A.838.838,0,0,1-219.81,534.138Z" transform="translate(243.126 -211.075)"/><path class="c" d="M-183.371,553.188a.854.854,0,0,1-.756-.451l-31.215-58.346a.852.852,0,0,1-.059-.671.854.854,0,0,1,.445-.506l43.371-20.619-24.088-49.836a.849.849,0,0,1-.025-.692.855.855,0,0,1,.5-.483l34.165-12.728a.859.859,0,0,1,1.1.5.855.855,0,0,1-.5,1.1l-33.284,12.4,24.054,49.765a.854.854,0,0,1,.038.656.851.851,0,0,1-.44.488l-43.338,20.6,30.793,57.554a.856.856,0,0,1-.35,1.159A.859.859,0,0,1-183.371,553.188Z" transform="translate(247.242 -206.923)"/><path class="c" d="M-200.7,334.979a.571.571,0,0,1-.5-.29.573.573,0,0,1,.216-.778l37.9-21.4a.571.571,0,0,1,.778.218.568.568,0,0,1-.216.776l-37.9,21.4A.568.568,0,0,1-200.7,334.979Z" transform="translate(258.413 -282.868)"/><path class="c" d="M-171.4,326.313a.568.568,0,0,1-.481-.265l-18.462-29a.568.568,0,0,1,.175-.787.57.57,0,0,1,.787.173l18.464,29a.572.572,0,0,1-.175.789A.564.564,0,0,1-171.4,326.313Z" transform="translate(266.956 -295.686)"/><path class="c" d="M-129.657,353.609a.566.566,0,0,1-.284-.077l-30.532-17.65a.57.57,0,0,1-.209-.78.573.573,0,0,1,.78-.207l30.532,17.65a.57.57,0,0,1,.207.78A.569.569,0,0,1-129.657,353.609Z" transform="translate(290.34 -265.232)"/><path class="c" d="M-147.329,348.091a.563.563,0,0,1-.283-.075l-15.6-8.887a.573.573,0,0,1-.213-.78.573.573,0,0,1,.78-.213l15.6,8.889a.572.572,0,0,1,.213.778A.575.575,0,0,1-147.329,348.091Z" transform="translate(288.184 -262.675)"/><path class="c" d="M-144.428,329.209a.559.559,0,0,1-.283-.075l-22.9-13.109a.571.571,0,0,1-.211-.78.57.57,0,0,1,.778-.211l22.9,13.109a.57.57,0,0,1,.213.78A.574.574,0,0,1-144.428,329.209Z" transform="translate(284.712 -280.882)"/><path class="c" d="M-148.528,378.832a.558.558,0,0,1-.283-.075l-14.323-8.163a.571.571,0,0,1-.213-.778.572.572,0,0,1,.78-.213l14.321,8.161a.571.571,0,0,1,.213.78A.572.572,0,0,1-148.528,378.832Z" transform="translate(288.242 -237.877)"/><path class="c" d="M-149.647,330.2a.571.571,0,0,1-.277-.072l-29.888-16.669a.569.569,0,0,1-.22-.776.57.57,0,0,1,.776-.22l29.886,16.667a.57.57,0,0,1,.222.776A.571.571,0,0,1-149.647,330.2Z" transform="translate(275.094 -282.906)"/><path class="c" d="M-125.875,386.993a.565.565,0,0,1-.284-.075l-36.908-22.11a.571.571,0,0,1-.211-.778.572.572,0,0,1,.78-.211l36.908,22.11a.571.571,0,0,1,.211.78A.572.572,0,0,1-125.875,386.993Z" transform="translate(288.295 -242.435)"/><path class="c" d="M-114.633,357.03a.569.569,0,0,1-.286-.077l-37.806-22.2a.57.57,0,0,1-.209-.78.57.57,0,0,1,.78-.207l37.808,22.2a.571.571,0,0,1,.207.78A.567.567,0,0,1-114.633,357.03Z" transform="translate(296.446 -266.12)"/><path class="c" d="M-125.807,334.739a.557.557,0,0,1-.284-.077l-37.128-21.64a.57.57,0,0,1-.209-.78.571.571,0,0,1,.78-.207l37.128,21.64a.57.57,0,0,1,.207.78A.569.569,0,0,1-125.807,334.739Z" transform="translate(288.175 -283.248)"/><path class="c" d="M-179.535,313.875a.573.573,0,0,1-.57-.556.571.571,0,0,1,.556-.585l29.681-.776a.571.571,0,0,1,.585.556.569.569,0,0,1-.556.585l-29.679.776Z" transform="translate(275.093 -283.248)"/><path class="c" d="M-148.794,335.209c-.02,0-.041,0-.061,0l-8.722-.915a.568.568,0,0,1-.508-.626.566.566,0,0,1,.626-.508l8.722.915a.568.568,0,0,1,.508.626A.568.568,0,0,1-148.794,335.209Z" transform="translate(292.444 -266.545)"/><path class="c" d="M-220.977,413.66a.567.567,0,0,1-.494-.284.57.57,0,0,1,.207-.78l35.589-20.529a.57.57,0,0,1,.78.207.57.57,0,0,1-.209.78l-35.589,20.529A.566.566,0,0,1-220.977,413.66Z" transform="translate(242.431 -220.174)"/><rect class="c" width="1.712" height="9.3" transform="translate(56.118 162.77)"/><rect class="c" width="1.712" height="6.194" transform="translate(56.118 112.367)"/><path class="c" d="M-201.312,348.064a.576.576,0,0,1-.561-.456.574.574,0,0,1,.443-.681l38.418-8.114-18.353-41.833a.576.576,0,0,1,.3-.758.575.575,0,0,1,.756.3L-161.675,339a.569.569,0,0,1-.016.493.572.572,0,0,1-.392.3l-39.108,8.259A.564.564,0,0,1-201.312,348.064Z" transform="translate(257.927 -295.688)"/><path class="c" d="M-184.495,359.8a.575.575,0,0,1-.517-.322l-16.815-34.1a.575.575,0,0,1,.263-.771.578.578,0,0,1,.771.261l16.814,34.1a.575.575,0,0,1-.261.771A.564.564,0,0,1-184.495,359.8Z" transform="translate(257.927 -273.324)"/><path class="c" d="M-220.481,357.53a.576.576,0,0,1-.556-.435.573.573,0,0,1,.415-.7l50.725-12.865a.576.576,0,0,1,.7.417.577.577,0,0,1-.417.7l-50.723,12.865A.655.655,0,0,1-220.481,357.53Z" transform="translate(242.82 -258.379)"/><path class="c" d="M-230.82,409.449a.57.57,0,0,1-.56-.465.571.571,0,0,1,.456-.665l46.2-8.654-10.2-41.924a.568.568,0,0,1,.42-.688.565.565,0,0,1,.688.418l10.339,42.509a.576.576,0,0,1-.077.445.569.569,0,0,1-.374.25l-46.8,8.765A.527.527,0,0,1-230.82,409.449Z" transform="translate(234.675 -247.722)"/><path class="c" d="M-198.261,359.269a.57.57,0,0,1-.565-.5.571.571,0,0,1,.5-.635l22.051-2.643a.573.573,0,0,1,.635.5.57.57,0,0,1-.5.635l-22.051,2.643C-198.215,359.267-198.238,359.269-198.261,359.269Z" transform="translate(260.336 -248.944)"/><path class="c" d="M-221.124,410.066a.572.572,0,0,1-.554-.436.572.572,0,0,1,.42-.69l50.212-12.256a.571.571,0,0,1,.688.418.571.571,0,0,1-.418.69L-220.99,410.05A.564.564,0,0,1-221.124,410.066Z" transform="translate(242.317 -216.487)"/><path class="c" d="M-189.1,406.263a.572.572,0,0,1-.524-.341l-8.706-19.819a.572.572,0,0,1,.293-.751.572.572,0,0,1,.753.293l8.706,19.818a.572.572,0,0,1-.293.753A.578.578,0,0,1-189.1,406.263Z" transform="translate(260.689 -225.444)"/><g transform="translate(29.305 17.284)"><path class="d" d="M-199.1,588.737a1.045,1.045,0,0,1-.165-.012,1.058,1.058,0,0,1-.882-1.209L-173.725,419.1a1.054,1.054,0,0,1,.515-.753l38.568-22.266a1.053,1.053,0,0,1,.953-.054,1.055,1.055,0,0,1,.608.737l30.691,135.44a1.058,1.058,0,0,1-.8,1.266,1.056,1.056,0,0,1-1.266-.8l-30.375-134.04-36.885,21.295-26.337,167.912A1.056,1.056,0,0,1-199.1,588.737Z" transform="translate(229.987 -234.344)"/><path class="d" d="M-184.323,479.308a1.058,1.058,0,0,1-.529-.141,1.06,1.06,0,0,1-.529-.917V344.428a1.057,1.057,0,0,1,.529-.916l38.568-22.267a1.056,1.056,0,0,1,1.059,0,1.06,1.06,0,0,1,.529.917v133.82a1.06,1.06,0,0,1-.529.917l-38.568,22.267A1.049,1.049,0,0,1-184.323,479.308Zm1.059-134.269V476.417l36.451-21.044V323.995Z" transform="translate(241.629 -293.326)"/><path class="d" d="M-184.43,357.421a.851.851,0,0,1-.551-.2.848.848,0,0,1-.238-.948l19.4-50.16a.846.846,0,0,1,.688-.535.842.842,0,0,1,.794.356l19.4,27.757a.848.848,0,0,1,.132.667.844.844,0,0,1-.4.549l-38.8,22.4A.833.833,0,0,1-184.43,357.421Zm19.617-49.221-17.963,46.443,35.928-20.742Z" transform="translate(241.713 -305.568)"/><path class="d" d="M-205.132,393.123a.849.849,0,0,1-.64-.29.85.85,0,0,1-.034-1.08l37.044-48.095a.851.851,0,0,1,.249-.218l38.568-22.267a.858.858,0,0,1,.545-.1l37.046,5.318a.849.849,0,0,1,.713.681.849.849,0,0,1-.408.9l-112.658,65.042A.854.854,0,0,1-205.132,393.123Zm37.615-48.293-34.319,44.558,106.807-61.665L-129.35,322.8Z" transform="translate(225.393 -293.358)"/><path class="d" d="M-205.132,445.151a.849.849,0,0,1-.64-.29.85.85,0,0,1-.034-1.08l37.044-48.095a.878.878,0,0,1,.249-.218l38.568-22.266a.859.859,0,0,1,.545-.106l37.046,5.318a.849.849,0,0,1,.713.681.849.849,0,0,1-.408.9l-112.658,65.044A.853.853,0,0,1-205.132,445.151Zm37.615-48.293-34.319,44.558,106.807-61.665-34.321-4.928Z" transform="translate(225.393 -252.354)"/><path class="d" d="M-215.987,438.68a.847.847,0,0,1-.64-.291.85.85,0,0,1-.034-1.08l56.456-73.021a.866.866,0,0,1,.247-.216l38.568-22.266a.832.832,0,0,1,.542-.107l56.456,7.834a.849.849,0,0,1,.717.679.851.851,0,0,1-.409.9l-151.476,87.455A.85.85,0,0,1-215.987,438.68Zm57.025-73.218-53.711,69.472,145.591-84.057-53.711-7.453Z" transform="translate(216.838 -277.101)"/><path class="d" d="M-180.993,400.924a5.81,5.81,0,0,1-2.636,4.547c-1.456.84-2.636.166-2.636-1.5a5.807,5.807,0,0,1,2.636-4.545C-182.173,398.581-180.993,399.253-180.993,400.924Z" transform="translate(240.934 -231.887)"/><path class="d" d="M-159.464,388.5a5.805,5.805,0,0,1-2.634,4.545c-1.456.84-2.636.166-2.636-1.5a5.807,5.807,0,0,1,2.636-4.545C-160.643,386.151-159.464,386.823-159.464,388.5Z" transform="translate(257.902 -241.683)"/><path class="d" d="M-180.993,408.958a5.807,5.807,0,0,1-2.636,4.545c-1.456.84-2.636.168-2.636-1.5a5.807,5.807,0,0,1,2.636-4.545C-182.173,406.615-180.993,407.287-180.993,408.958Z" transform="translate(240.934 -225.555)"/><path class="d" d="M-159.464,396.528a5.8,5.8,0,0,1-2.634,4.545c-1.456.84-2.636.168-2.636-1.5a5.807,5.807,0,0,1,2.636-4.545C-160.643,394.185-159.464,394.857-159.464,396.528Z" transform="translate(257.902 -235.351)"/><path class="d" d="M-180.993,386.126a5.807,5.807,0,0,1-2.636,4.545c-1.456.84-2.636.168-2.636-1.5a5.807,5.807,0,0,1,2.636-4.547C-182.173,383.782-180.993,384.456-180.993,386.126Z" transform="translate(240.934 -243.55)"/><path class="d" d="M-159.464,373.7a5.8,5.8,0,0,1-2.634,4.545c-1.456.84-2.636.168-2.636-1.5a5.81,5.81,0,0,1,2.636-4.547C-160.643,371.352-159.464,372.026-159.464,373.7Z" transform="translate(257.902 -253.346)"/><path class="d" d="M-180.993,377.246a5.81,5.81,0,0,1-2.636,4.547c-1.456.84-2.636.166-2.636-1.5a5.807,5.807,0,0,1,2.636-4.545C-182.173,374.9-180.993,375.575-180.993,377.246Z" transform="translate(240.934 -250.548)"/><path class="d" d="M-159.464,364.816a5.808,5.808,0,0,1-2.634,4.547c-1.456.84-2.636.166-2.636-1.5a5.807,5.807,0,0,1,2.636-4.545C-160.643,362.473-159.464,363.145-159.464,364.816Z" transform="translate(257.902 -260.344)"/><path class="d" d="M-180.993,355.048a5.807,5.807,0,0,1-2.636,4.545c-1.456.84-2.636.168-2.636-1.5a5.807,5.807,0,0,1,2.636-4.545C-182.173,352.705-180.993,353.377-180.993,355.048Z" transform="translate(240.934 -268.042)"/><path class="d" d="M-159.464,342.618a5.808,5.808,0,0,1-2.634,4.547c-1.456.839-2.636.166-2.636-1.5a5.807,5.807,0,0,1,2.636-4.545C-160.643,340.275-159.464,340.947-159.464,342.618Z" transform="translate(257.902 -277.838)"/><path class="d" d="M-180.993,348.917a5.81,5.81,0,0,1-2.636,4.547c-1.456.839-2.636.166-2.636-1.5a5.807,5.807,0,0,1,2.636-4.545C-182.173,346.574-180.993,347.247-180.993,348.917Z" transform="translate(240.934 -272.874)"/><path class="d" d="M-159.464,336.487a5.808,5.808,0,0,1-2.634,4.547c-1.456.84-2.636.166-2.636-1.5a5.807,5.807,0,0,1,2.636-4.545C-160.643,334.144-159.464,334.816-159.464,336.487Z" transform="translate(257.902 -282.67)"/><path class="d" d="M-184.417,479.126a.841.841,0,0,1-.44-.123.847.847,0,0,1-.283-1.162l38.126-62.443-37.956-32.874a.848.848,0,0,1-.157-1.1l38.566-59.973a.841.841,0,0,1,1.168-.254.843.843,0,0,1,.254,1.168l-38.169,59.358,37.942,32.864a.844.844,0,0,1,.168,1.08l-38.5,63.054A.848.848,0,0,1-184.417,479.126Z" transform="translate(241.723 -293.357)"/><path class="d" d="M-145.921,463.518a.838.838,0,0,1-.367-.084l-38.5-18.6a.841.841,0,0,1-.433-.486.836.836,0,0,1,.043-.649l38.09-76.978-37.649-15.14a.852.852,0,0,1-.508-.59.848.848,0,0,1,.19-.755l29.289-33.261-14.339-2.632a.844.844,0,0,1-.678-.983.851.851,0,0,1,.983-.679l15.807,2.9a.847.847,0,0,1,.646.554.845.845,0,0,1-.165.837l-29.486,33.484,37.388,15.034a.843.843,0,0,1,.474.485.84.84,0,0,1-.032.676l-38.117,77.032,37.727,18.228a.846.846,0,0,1,.393,1.13A.843.843,0,0,1-145.921,463.518Z" transform="translate(241.723 -299.975)"/><path class="d" d="M-192.812,414.328a1.058,1.058,0,0,1-1.059-1.059V397.506a1.059,1.059,0,0,1,1.059-1.059,1.059,1.059,0,0,1,1.059,1.059V413.27A1.058,1.058,0,0,1-192.812,414.328Z" transform="translate(234.939 -233.946)"/><path class="d" d="M-191.778,361.565a1.058,1.058,0,0,1-1.059-1.059V344.743a1.058,1.058,0,0,1,1.059-1.059,1.058,1.058,0,0,1,1.059,1.059v15.764A1.058,1.058,0,0,1-191.778,361.565Z" transform="translate(235.754 -275.529)"/><path class="d" d="M-154.546,339.244a.572.572,0,0,1-.572-.572V322.907a.571.571,0,0,1,.572-.57.571.571,0,0,1,.57.57v15.764A.571.571,0,0,1-154.546,339.244Z" transform="translate(265.48 -292.353)"/><path class="d" d="M-154.824,391.568a.57.57,0,0,1-.57-.572V375.233a.569.569,0,0,1,.57-.57.57.57,0,0,1,.57.57V391A.571.571,0,0,1-154.824,391.568Z" transform="translate(265.263 -251.114)"/><path class="d" d="M-193.437,395.389a1.058,1.058,0,0,1-1.059-1.059V367.073a1.058,1.058,0,0,1,1.059-1.059c.587,0,1.06.111,1.06.7v27.621A1.059,1.059,0,0,1-193.437,395.389Z" transform="translate(234.446 -257.93)"/><path class="d" d="M-204.076,395.267a1.058,1.058,0,0,1-1.059-1.059V381.166a1.058,1.058,0,0,1,1.059-1.059,1.057,1.057,0,0,1,1.059,1.059v13.042A1.057,1.057,0,0,1-204.076,395.267Z" transform="translate(226.061 -246.824)"/><path class="d" d="M-143.217,359.3a.569.569,0,0,1-.57-.57V345.688a.57.57,0,0,1,.57-.57.571.571,0,0,1,.57.57v13.042A.57.57,0,0,1-143.217,359.3Z" transform="translate(274.41 -274.399)"/><path class="d" d="M-154.271,372.106a.569.569,0,0,1-.57-.57V343.922a.57.57,0,0,1,.57-.572.571.571,0,0,1,.57.572v27.614A.57.57,0,0,1-154.271,372.106Z" transform="translate(265.699 -275.792)"/><path class="d" d="M-196.932,554.267a1.055,1.055,0,0,1-.747-.307,1.059,1.059,0,0,1,0-1.5l78.536-78.906-65.209.554a1.094,1.094,0,0,1-.969-.612,1.062,1.062,0,0,1,.156-1.135l52.284-61.078-41.52-.774a1.06,1.06,0,0,1-1.039-1.078,1.085,1.085,0,0,1,1.08-1.039l43.762.817a1.056,1.056,0,0,1,.946.626,1.057,1.057,0,0,1-.161,1.121l-52.231,61.016,65.459-.558h.009a1.061,1.061,0,0,1,.976.649,1.06,1.06,0,0,1-.225,1.157l-80.354,80.733A1.052,1.052,0,0,1-196.932,554.267Z" transform="translate(231.692 -224.53)"/><path class="d" d="M-193.538,526.377a1.061,1.061,0,0,1-.926-.545,1.061,1.061,0,0,1,.127-1.207l65.155-75.449-52.27-.232a1.061,1.061,0,0,1-.957-.615,1.057,1.057,0,0,1,.152-1.128l42.952-50.882a1.06,1.06,0,0,1,1.493-.125,1.058,1.058,0,0,1,.125,1.491l-41.491,49.152,52.313.234a1.055,1.055,0,0,1,.958.62,1.06,1.06,0,0,1-.163,1.132l-65.134,75.07,78.875-12.4a1.057,1.057,0,0,1,1.211.882,1.059,1.059,0,0,1-.882,1.211l-81.373,12.783A1.061,1.061,0,0,1-193.538,526.377Z" transform="translate(234.367 -234.344)"/></g></g><path class="g" d="M-258.616,268.338l5.344-2.96,4.966,3.586,4.927-2.81,4.178,3.492,6.329-2.843" transform="translate(115.763 98.984)"/><path class="g" d="M-288.855,256.785l6.09-.485,3.039,5.318,5.648-.521,2.361,4.907,6.938.029" transform="translate(91.931 91.829)"/><path class="g" d="M-284.768,294.587l1.875-5.814,6.075-.78,1.673-5.42,5.437-.31,2.673-6.4" transform="translate(95.153 107.245)"/></g></g></svg>