<svg xmlns="http://www.w3.org/2000/svg" width="46" height="46" viewBox="0 0 46 46"><defs><style>.a{fill:none;}.b{fill:#1e981d;}</style></defs><g transform="translate(1923.25 -1004)"><rect class="a" width="46" height="46" transform="translate(-1923.25 1004)"/><g transform="translate(-1918.569 1006.081)"><path class="b" d="M37.973,7.8V9.1a1.3,1.3,0,0,1-1.3,1.3h-1.3V37.71a3.9,3.9,0,0,1-3.9,3.9H8.064a3.9,3.9,0,0,1-3.9-3.9V10.4h-1.3a1.3,1.3,0,0,1-1.3-1.3V7.8a1.3,1.3,0,0,1,1.3-1.3h6.7l2.763-4.607A4.328,4.328,0,0,1,15.669,0h8.2a4.323,4.323,0,0,1,3.344,1.894L29.974,6.5h6.7A1.3,1.3,0,0,1,37.973,7.8Zm-6.5,2.6H8.064V37.71H31.47Zm-18.2,22.432V15.28a.975.975,0,0,1,.975-.975h1.951a.976.976,0,0,1,.975.975V32.835a.977.977,0,0,1-.975.975H14.241A.976.976,0,0,1,13.266,32.835ZM14.11,6.5H25.425L24.006,4.138a.542.542,0,0,0-.419-.236H15.946a.536.536,0,0,0-.418.236Zm8.259,26.333V15.28a.974.974,0,0,1,.974-.975h1.951a.975.975,0,0,1,.975.975V32.835a.976.976,0,0,1-.975.975H23.342A.975.975,0,0,1,22.369,32.835Z" transform="translate(-1.563)"/></g></g></svg>