<svg xmlns="http://www.w3.org/2000/svg" width="18" height="18" viewBox="0 0 18 18"><defs><style>.a{fill:none;}.b{fill:#fff;}</style></defs><g transform="translate(-1255.562 -190.5)"><rect class="a" width="18" height="18" transform="translate(1255.562 190.5)"/><g transform="translate(1256.437 192)"><path class="b" d="M14.688,2.813v.469a.469.469,0,0,1-.469.469H13.75v9.844A1.407,1.407,0,0,1,12.344,15H3.907A1.407,1.407,0,0,1,2.5,13.594V3.75H2.032a.468.468,0,0,1-.469-.469V2.813a.469.469,0,0,1,.469-.469H4.446l1-1.661A1.56,1.56,0,0,1,6.648,0H9.6a1.558,1.558,0,0,1,1.205.683l1,1.661h2.414A.469.469,0,0,1,14.688,2.813Zm-2.344.937H3.907v9.844h8.437ZM5.782,11.836V5.508a.351.351,0,0,1,.352-.352h.7a.352.352,0,0,1,.352.352v6.328a.352.352,0,0,1-.352.352h-.7A.352.352,0,0,1,5.782,11.836Zm.3-9.493h4.079l-.511-.852A.2.2,0,0,0,9.5,1.406H6.748a.193.193,0,0,0-.151.085Zm2.977,9.493V5.508a.351.351,0,0,1,.351-.352h.7a.351.351,0,0,1,.352.352v6.328a.352.352,0,0,1-.352.352h-.7A.352.352,0,0,1,9.063,11.836Z"/></g></g></svg>