<svg xmlns="http://www.w3.org/2000/svg" width="35" height="35" viewBox="0 0 35 35"><defs><style>.a{fill:#ccc;}.b{fill:#fff;}</style></defs><g transform="translate(-1102 -126)"><path class="a" d="M17.5,0A17.5,17.5,0,1,1,0,17.5,17.5,17.5,0,0,1,17.5,0Z" transform="translate(1102 126)"/><g transform="translate(957.993 134.635)"><path class="b" d="M20.562,18.594v1.086a2.036,2.036,0,0,1-2.035,2.035H3.6a2.037,2.037,0,0,1-2.036-2.035V18.594a5.7,5.7,0,0,1,5.7-5.7c1.222,0,1.8.679,3.8.679s2.583-.679,3.8-.679A5.7,5.7,0,0,1,20.562,18.594Zm-2.035,0a3.67,3.67,0,0,0-3.665-3.665,16.466,16.466,0,0,1-3.8.677,16.628,16.628,0,0,1-3.8-.677A3.67,3.67,0,0,0,3.6,18.594v1.086H18.527ZM4.956,6.108a6.107,6.107,0,1,1,6.106,6.107A6.108,6.108,0,0,1,4.956,6.108Zm2.035,0a4.071,4.071,0,1,0,4.071-4.073A4.078,4.078,0,0,0,6.991,6.108Z" transform="translate(150.445 -2.37)"/></g></g></svg>