<svg xmlns="http://www.w3.org/2000/svg" width="18" height="18" viewBox="0 0 18 18"><defs><style>.a{fill:none;}.b{fill:#cb0017;}</style></defs><g transform="translate(-747.5 -486.499)"><rect class="a" width="18" height="18" transform="translate(747.5 486.499)"/><g transform="translate(750.5 489.498)"><path class="b" d="M11.686,9.412a1.072,1.072,0,0,1,0,1.516l-.759.758a1.071,1.071,0,0,1-1.515,0L6,8.275,2.588,11.686a1.071,1.071,0,0,1-1.515,0l-.759-.758a1.072,1.072,0,0,1,0-1.516L3.726,6,.314,2.589a1.072,1.072,0,0,1,0-1.516L1.073.315a1.071,1.071,0,0,1,1.515,0L6,3.726,9.412.315a1.071,1.071,0,0,1,1.515,0l.759.758a1.072,1.072,0,0,1,0,1.516L8.274,6Z"/></g></g></svg>