<svg xmlns="http://www.w3.org/2000/svg" width="25" height="25" viewBox="0 0 25 25"><defs><style>.a{fill:#1e981d;}.b{fill:#fff;}</style></defs><g transform="translate(-1222 -187)"><rect class="a" width="25" height="25" rx="4" transform="translate(1222 187)"/><g transform="translate(1228.6 190.613)"><path class="b" d="M11.31,9.538a.21.21,0,0,1,.357.149v3.787a1.25,1.25,0,0,1-1.25,1.25H1.25A1.25,1.25,0,0,1,0,13.473V4.306a1.25,1.25,0,0,1,1.25-1.25H8.372a.21.21,0,0,1,.149.357l-.833.833a.207.207,0,0,1-.149.059H1.25v9.167h9.167V10.517a.205.205,0,0,1,.06-.146ZM7.717,11.954l-2.354.26a1.076,1.076,0,0,1-1.187-1.187l.26-2.354,6.838-6.839a1.521,1.521,0,0,1,2.154,0L14.552,2.96a1.525,1.525,0,0,1,0,2.156Zm2.752-7.547L5.63,9.249l-.19,1.7,1.7-.19,4.841-4.838ZM12.545,2.72a.272.272,0,0,0-.386,0l-.8.8,1.513,1.513.8-.8a.277.277,0,0,0,0-.388Z"/></g></g></svg>