<svg xmlns="http://www.w3.org/2000/svg" width="18" height="18" viewBox="0 0 18 18"><defs><style>.a{fill:none;}.b{fill:#a4a4a8;}</style></defs><g transform="translate(-3883.277 39.721)"><rect class="a" width="18" height="18" transform="translate(3883.277 -39.721)"/><g transform="translate(3885 -36.179)"><path class="b" d="M-125.446,4.49v8.187a1.364,1.364,0,0,1-1.365,1.365h-11.825A1.364,1.364,0,0,1-140,12.676V4.49a1.365,1.365,0,0,1,1.365-1.365h11.825A1.365,1.365,0,0,1-125.446,4.49Zm-13.19,0v1.16c.637.52,1.654,1.326,3.826,3.027.478.377,1.427,1.281,2.087,1.271.66.01,1.608-.894,2.087-1.271,2.173-1.7,3.189-2.508,3.826-3.027V4.49Zm11.825,8.187V7.4c-.651.519-1.575,1.247-2.983,2.35-.641.5-1.715,1.568-2.93,1.562s-2.308-1.073-2.929-1.563c-1.408-1.1-2.332-1.83-2.983-2.349v5.276Z" transform="translate(140 -3.125)"/></g></g></svg>