<svg xmlns="http://www.w3.org/2000/svg" width="14.554" height="11.076" viewBox="0 0 14.554 11.076"><defs><style>.a{fill:#666;}</style></defs><path class="a" d="M-51.888,14.063h-1.961a.334.334,0,0,1-.334-.334v-.789a.333.333,0,0,1,.334-.333h1.961a1.6,1.6,0,0,0,1.6-1.6V6.038a1.6,1.6,0,0,0-1.6-1.6h-1.961a.333.333,0,0,1-.334-.333V3.321a.334.334,0,0,1,.334-.334h1.961a3.051,3.051,0,0,1,3.051,3.051v4.974A3.052,3.052,0,0,1-51.888,14.063Z" transform="translate(63.391 -2.987)"/><path class="a" d="M-59.51,9.065l-4.776,4.776a.683.683,0,0,1-1.166-.483V10.629h-3.866A.681.681,0,0,1-70,9.947V7.217a.681.681,0,0,1,.682-.682h3.866V3.806a.683.683,0,0,1,1.166-.483L-59.51,8.1A.688.688,0,0,1-59.51,9.065Z" transform="translate(70 -3.044)"/></svg>