<svg xmlns="http://www.w3.org/2000/svg" width="18" height="18" viewBox="0 0 18 18"><defs><style>.a{fill:none;}.b{fill:#666;stroke:rgba(0,0,0,0);}</style></defs><g transform="translate(-3985.157 39.721)"><rect class="a" width="18" height="18" transform="translate(3985.157 -39.721)"/><g transform="translate(3987.155 -38.11)"><path class="b" d="M10.857,11.777a.3.3,0,0,1,.462.258v1.076a1.212,1.212,0,0,1-1.213,1.213H1.215A1.213,1.213,0,0,1,0,13.112V4.218A1.213,1.213,0,0,1,1.215,3.005H4.549a.3.3,0,0,1,.3.3v.114a.3.3,0,0,1-.191.282,6.139,6.139,0,0,0-.961.47.357.357,0,0,1-.159.045H1.366a.152.152,0,0,0-.152.152V12.96a.152.152,0,0,0,.152.152H9.955a.152.152,0,0,0,.151-.152V12.3a.3.3,0,0,1,.221-.292A2.485,2.485,0,0,0,10.857,11.777ZM14.2,7.1,10.56,10.735a1.213,1.213,0,0,1-2.07-.857V8.518c-2.558.2-2.516.8-2.125,1.99a1.213,1.213,0,0,1-1.794,1.409A4.27,4.27,0,0,1,2.427,8.259a3.609,3.609,0,0,1,.917-2.508A4.63,4.63,0,0,1,5.439,4.5a12.223,12.223,0,0,1,3.05-.455V2.6a1.213,1.213,0,0,1,2.07-.858L14.2,5.382A1.213,1.213,0,0,1,14.2,7.1Z" transform="translate(0 0)"/></g></g></svg>