<svg xmlns="http://www.w3.org/2000/svg" width="18" height="18" viewBox="0 0 18 18"><defs><style>.a{fill:none;}.b{fill:#cb0017;}</style></defs><g transform="translate(-4005.534 39.721)"><rect class="a" width="18" height="18" transform="translate(4005.534 -39.721)"/><g transform="translate(4007.257 -37.109)"><path class="b" d="M82.561,7.008h-.787V4.335a1.551,1.551,0,0,0-.4-.954L79.921,1.923a1.551,1.551,0,0,0-.954-.4H74.129A1.349,1.349,0,0,0,72.78,2.877V7.008h-.787A1.993,1.993,0,0,0,70,9v2.583a.658.658,0,0,0,.658.658H72.78v.712A1.349,1.349,0,0,0,74.129,14.3h6.3a1.349,1.349,0,0,0,1.349-1.349v-.712H83.9a.658.658,0,0,0,.658-.658V9A1.993,1.993,0,0,0,82.561,7.008Zm-2.136,5.777a.169.169,0,0,1-.169.169H74.3a.169.169,0,0,1-.169-.169v-.543h6.3Zm0-5.777v.908h-6.3V3.046a.169.169,0,0,1,.169-.169h2.979V5.35a.674.674,0,0,0,.675.675h2.473Zm0-2.332h-1.8v-1.8H78.9a.169.169,0,0,1,.119.049l1.359,1.359a.2.2,0,0,1,.049.119ZM81.774,9.8a.814.814,0,1,1,.814-.814A.814.814,0,0,1,81.774,9.8Z" transform="translate(-70 -1.528)"/></g></g></svg>