<svg xmlns="http://www.w3.org/2000/svg" width="16" height="16" viewBox="0 0 16 16"><defs><style>.a{fill:#ed1c24;}.b{fill:#fff;}</style></defs><g transform="translate(-7088 -2602)"><circle class="a" cx="8" cy="8" r="8" transform="translate(7088 2602)"/><g transform="translate(7092 2605.999)"><path class="b" d="M7.791,6.275a.715.715,0,0,1,0,1.011l-.506.505a.714.714,0,0,1-1.01,0L4,5.517,1.725,7.791a.714.714,0,0,1-1.01,0L.209,7.286a.715.715,0,0,1,0-1.011L2.484,4,.209,1.726a.715.715,0,0,1,0-1.011L.715.21a.714.714,0,0,1,1.01,0L4,2.485,6.275.21a.714.714,0,0,1,1.01,0l.506.505a.715.715,0,0,1,0,1.011L5.516,4Z" transform="translate(0)"/></g></g></svg>