<svg xmlns="http://www.w3.org/2000/svg" width="314.39" height="104.114" viewBox="0 0 314.39 104.114"><defs><style>.a{fill:#4a4a4a;}.b{fill:#2a579a;}.c{fill:#cb0017;}</style></defs><path class="a" d="M781.975,333.669V256.435a.926.926,0,0,0-.926-.927h0a.927.927,0,0,0-.927.927v77.234a.927.927,0,0,1-.927.927h-9.268a.927.927,0,0,0-.927.927h0a.927.927,0,0,0,.927.927H792.17a.927.927,0,0,0,.927-.927h0a.927.927,0,0,0-.927-.927H782.9A.927.927,0,0,1,781.975,333.669Z" transform="translate(-563.913 -234.346)"/><path class="b" d="M850.2,261.089l0,0a.921.921,0,0,0-1.192.552l-12.286,33.307a.921.921,0,0,1-1.744-.025l-23.94-70.778a.928.928,0,0,0-.876-.636H792.593a.842.842,0,0,0-.781,1.126L826.9,323.994a.783.783,0,0,0,1.48.007l22.362-61.7A.948.948,0,0,0,850.2,261.089Z" transform="translate(-572.611 -222.117)"/><path class="c" d="M922.43,322.367h-7.068a.961.961,0,0,1-.961-.961V226.321a.961.961,0,0,1,.961-.96h7.068a.927.927,0,1,0,0-1.854h-34.6a.927.927,0,0,0,0,1.854H894.9a.96.96,0,0,1,.96.96v95.085a.96.96,0,0,1-.96.961h-7.069a.927.927,0,0,0,0,1.854h34.6a.927.927,0,1,0,0-1.854Z" transform="translate(-608.967 -222.117)"/><path class="c" d="M459.806,367.939a32.4,32.4,0,0,1-3.29-1.611,30.781,30.781,0,0,1-6.6-5.185,32.184,32.184,0,0,1-5.223-6.407,49.681,49.681,0,0,1-3.521-6.751,44.137,44.137,0,0,1-2.13-6.173c-.306-1.189-.558-2.255-.749-3.166a.618.618,0,0,0-1.222.127v29.258a.617.617,0,0,0,.618.618h.24a.617.617,0,0,0,.568-.374,5.311,5.311,0,0,1,1.5-2.183h0a5.437,5.437,0,0,1,3.269-.776,17.947,17.947,0,0,1,4.593.895c1.974.578,4.257,1.185,6.784,1.8,1.507.371,3.12.741,4.793,1.1a.618.618,0,0,0,.368-1.174Z" transform="translate(-437.074 -265.928)"/><path class="b" d="M502.919,272.215a38.844,38.844,0,0,0-9.773-5.634c-3.689-1.485-7.526-2.869-11.406-4.115-3.991-1.28-7.841-2.5-11.444-3.621a54.689,54.689,0,0,1-10.04-4.179,23.923,23.923,0,0,1-7.214-5.88,13.625,13.625,0,0,1-2.816-8.792,15.093,15.093,0,0,1,1.659-6.8,19.324,19.324,0,0,1,4.788-5.989,22.214,22.214,0,0,1,4.187-2.8.618.618,0,0,0-.523-1.118,35.816,35.816,0,0,0-10.1,6.226,30.037,30.037,0,0,0-7.1,9.3,24.717,24.717,0,0,0-2.546,10.889,29.271,29.271,0,0,0,2.474,12.772,25.9,25.9,0,0,0,6.582,8.566,36.134,36.134,0,0,0,9.4,5.7,105.257,105.257,0,0,0,10.95,3.89q5.654,1.668,11.015,3.262a49.308,49.308,0,0,1,9.687,3.963,21.06,21.06,0,0,1,6.94,5.974,15.294,15.294,0,0,1,2.656,9.205,24.484,24.484,0,0,1-1.186,6.917,22.13,22.13,0,0,1-4.1,7.53,22.587,22.587,0,0,1-7.257,5.681.618.618,0,0,0,.492,1.131q.425-.153.845-.315a39.733,39.733,0,0,0,12.417-7.49,33.3,33.3,0,0,0,8.04-10.957h0a31.74,31.74,0,0,0,2.843-13.222,24.729,24.729,0,0,0-2.606-11.879A27,27,0,0,0,502.919,272.215Z" transform="translate(-438.418 -222.015)"/><path class="a" d="M513.114,222.442c.424.185.842.386,1.24.6a24,24,0,0,1,7.883,6.62,38.088,38.088,0,0,1,5.083,9.06c1.107,2.787,2.178,5.657,3.186,8.53a.619.619,0,0,0,.583.413.649.649,0,0,0,.1-.009.619.619,0,0,0,.515-.609v-24.4a.618.618,0,0,0-.617-.618h-.279a.618.618,0,0,0-.559.354,6.657,6.657,0,0,1-1.185,1.856c-.568.568-1.558.833-3.118.833a10.779,10.779,0,0,1-4.077-.917c-1.363-.563-2.985-1.168-4.819-1.8-1.064-.364-2.251-.727-3.528-1.078a.618.618,0,0,0-.41,1.162Z" transform="translate(-465.989 -221.258)"/><path class="b" d="M624.769,222.287c-1.509.46-3.043,1-4.56,1.6a56.826,56.826,0,0,0-29.965,27.745,51.249,51.249,0,0,0-.5,42.8A54.679,54.679,0,0,0,618.7,322.308a53.137,53.137,0,0,0,5.765,2.037.585.585,0,0,0,.165.024.607.607,0,0,0,.566-.425.641.641,0,0,0-.374-.785,21.481,21.481,0,0,1-9.845-8.126c-2.5-3.724-4.359-8.676-5.528-14.719a120.34,120.34,0,0,1-1.75-22.29V265.416a126.781,126.781,0,0,1,1.019-16.093,41.725,41.725,0,0,1,4.342-14.267,26.87,26.87,0,0,1,9.563-10.233,21.1,21.1,0,0,1,2.582-1.382.618.618,0,0,0-.434-1.154Z" transform="translate(-493.719 -221.641)"/><path class="a" d="M692.5,223.124a24.624,24.624,0,0,1,7.949,5.585c4.9,5.141,8.672,12.354,11.2,21.437a.617.617,0,0,0,.594.452.636.636,0,0,0,.084-.005.618.618,0,0,0,.535-.612V222.909a.618.618,0,0,0-.618-.618h-.435a.619.619,0,0,0-.553.341,5.3,5.3,0,0,1-1.464,1.927,5.436,5.436,0,0,1-3.269.775,16.6,16.6,0,0,1-4.824-.9c-1.788-.565-3.877-1.172-6.208-1.8q-1.254-.34-2.6-.672a.618.618,0,0,0-.4,1.165Z" transform="translate(-534.538 -221.519)"/><path class="c" d="M715.578,327.117H687.092a.927.927,0,0,0,0,1.854h9.155a.994.994,0,0,1,.994.995v4.069a122.806,122.806,0,0,1-.583,12.382,28.445,28.445,0,0,1-2.743,10,16.684,16.684,0,0,1-6.245,6.769,14.7,14.7,0,0,1-3.191,1.433.618.618,0,0,0,.188,1.206.6.6,0,0,0,.109-.01,29.32,29.32,0,0,0,3.053-.706,68.067,68.067,0,0,0,8.256-2.943q3.622-1.593,6.739-2.971a16.837,16.837,0,0,1,6.844-1.43,6.761,6.761,0,0,1,3.422.879,3.878,3.878,0,0,1,1.669,1.908.888.888,0,0,0,.82.547.862.862,0,0,0,.863-.862V327.98A.862.862,0,0,0,715.578,327.117Z" transform="translate(-531.45 -261.71)"/></svg>