<svg xmlns="http://www.w3.org/2000/svg" width="18.586" height="18.586" viewBox="0 0 18.586 18.586"><defs><style>.a{fill:none;}.b{fill:#666;stroke:rgba(0,0,0,0);}</style></defs><g transform="translate(-1090.673 -94.673)"><rect class="a" width="18" height="18" transform="translate(1091 95)"/><g transform="translate(1091.514 103.999) rotate(-45)"><path class="b" d="M11.686,9.412a1.072,1.072,0,0,1,0,1.516l-.759.758a1.071,1.071,0,0,1-1.515,0L6,8.275,2.588,11.686a1.071,1.071,0,0,1-1.515,0l-.759-.758a1.072,1.072,0,0,1,0-1.516L3.726,6,.314,2.589a1.072,1.072,0,0,1,0-1.516L1.073.315a1.071,1.071,0,0,1,1.515,0L6,3.726,9.412.315a1.071,1.071,0,0,1,1.515,0l.759.758a1.072,1.072,0,0,1,0,1.516L8.274,6Z"/></g></g></svg>