<svg xmlns="http://www.w3.org/2000/svg" width="18" height="18" viewBox="0 0 18 18"><defs><style>.a{fill:none;}.b{fill:#666;}</style></defs><g transform="translate(-4046.286 39.721)"><rect class="a" width="18" height="18" transform="translate(4046.286 -39.721)"/><path class="b" d="M154.319,12.214l-3.365-3.365a.809.809,0,0,0-.573-.236h-.445a5.486,5.486,0,1,0-1.32,1.32v.445a.81.81,0,0,0,.236.574l3.365,3.365a.807.807,0,0,0,1.145,0l.955-.955A.813.813,0,0,0,154.319,12.214Zm-8.85-2.734A4.013,4.013,0,1,1,148.306,8.3,3.987,3.987,0,0,1,145.469,9.479Z" transform="translate(3908.009 -37.997)"/></g></svg>