<svg xmlns="http://www.w3.org/2000/svg" width="32" height="32" viewBox="0 0 32 32"><defs><style>.a{fill:#2a579a;}.b{fill:#fff;}</style></defs><g transform="translate(-562 -301)"><g transform="translate(-307 5)"><circle class="a" cx="16" cy="16" r="16" transform="translate(869 296)"/></g><path class="b" d="M229.019,39.759h0l-4.811-4.81a.687.687,0,0,0-1.173.486V37.5h-5.307a.767.767,0,0,0-.767.768v3.961a.767.767,0,0,0,.767.768h5.306v2.062a.687.687,0,0,0,1.173.486l4.811-4.811A.687.687,0,0,0,229.019,39.759Zm-4.61,3.642v-1.09a.688.688,0,0,0-.687-.687h-5.386V38.872h5.388a.688.688,0,0,0,.687-.687V37.1l3.15,3.154Z" transform="translate(538.252 540.22) rotate(-90)"/></g></svg>