<svg xmlns="http://www.w3.org/2000/svg" width="18" height="18" viewBox="0 0 18 18"><defs><style>.a{fill:none;}.b{fill:#fff;}</style></defs><g transform="translate(-3944.406 39.721)"><rect class="a" width="18" height="18" transform="translate(3944.406 -39.721)"/><g transform="translate(3946.128 -36.259)"><path class="b" d="M-31.949,14.063h1.961a.334.334,0,0,0,.334-.334v-.789a.333.333,0,0,0-.334-.333h-1.961a1.6,1.6,0,0,1-1.6-1.6V6.038a1.6,1.6,0,0,1,1.6-1.6h1.961a.333.333,0,0,0,.334-.333V3.321a.334.334,0,0,0-.334-.334h-1.961A3.051,3.051,0,0,0-35,6.038v4.974A3.052,3.052,0,0,0-31.949,14.063Z" transform="translate(35 -2.987)"/><path class="b" d="M-17.869,8.1l-4.776-4.776a.683.683,0,0,0-1.166.483V6.535h-3.866a.681.681,0,0,0-.682.682V9.947a.681.681,0,0,0,.682.682h3.866v2.729a.683.683,0,0,0,1.166.483l4.776-4.776A.687.687,0,0,0-17.869,8.1Z" transform="translate(32.225 -3.044)"/></g></g></svg>