<svg xmlns="http://www.w3.org/2000/svg" width="18" height="18" viewBox="0 0 18 18"><defs><style>.a{fill:none;}.b{fill:#1e981d;}</style></defs><g transform="translate(-257.5 -550.5)"><rect class="a" width="18" height="18" transform="translate(257.5 550.5)"/><g transform="translate(259 552)"><path class="b" d="M15,4.415v8.977A1.607,1.607,0,0,1,13.393,15H1.607A1.607,1.607,0,0,1,0,13.393V1.607A1.607,1.607,0,0,1,1.607,0h8.977a1.847,1.847,0,0,1,1.136.471l2.808,2.808A1.847,1.847,0,0,1,15,4.415Zm-1.607,8.777V4.5a.224.224,0,0,0-.059-.142l-2.62-2.62V5.089a.8.8,0,0,1-.8.8H4.018a.8.8,0,0,1-.8-.8V1.607H1.808a.2.2,0,0,0-.2.2V13.192a.2.2,0,0,0,.2.2H13.192A.2.2,0,0,0,13.393,13.192Zm-2.946-3.55A2.947,2.947,0,1,1,7.5,6.7,2.95,2.95,0,0,1,10.447,9.643ZM4.822,1.607V4.286H9.107V1.607ZM8.839,9.643A1.339,1.339,0,1,0,7.5,10.982,1.341,1.341,0,0,0,8.839,9.643Z"/></g></g></svg>