<svg xmlns="http://www.w3.org/2000/svg" width="121.414" height="108.074" viewBox="0 0 121.414 108.074"><defs><style>.a{fill:#ccc;}</style></defs><g transform="translate(-632 -206.67)"><g transform="translate(527.871 166.636)"><g transform="translate(104.129 40.034)"><g transform="translate(69.76 86.697)"><path class="a" d="M131.388,75.625a.69.69,0,0,1-.65-.469l-1.168-3.5h3.693a.686.686,0,1,1,0,1.371h-1.791l.568,1.7a.689.689,0,0,1-.436.869A.653.653,0,0,1,131.388,75.625Z" transform="translate(-129.57 -71.652)"/></g><g transform="translate(72.491 94.098)"><path class="a" d="M134.863,78.324h-3.236L130.6,75.256a.687.687,0,0,1,1.3-.436l.707,2.133h2.251a.686.686,0,1,1,0,1.371Z" transform="translate(-130.566 -74.351)"/></g><g transform="translate(26.674 96.7)"><path class="a" d="M176.235,86.674h-4.182a.686.686,0,1,1,0-1.371h4.182a4.359,4.359,0,0,0,1.012-.118.686.686,0,0,1,.315,1.335A5.715,5.715,0,0,1,176.235,86.674Zm-9.545,0h-5.363a.686.686,0,1,1,0-1.371h5.363a.686.686,0,1,1,0,1.371Zm-10.724,0H150.6a.686.686,0,1,1,0-1.371h5.363a.686.686,0,0,1,0,1.371Zm-10.727,0h-5.361a.686.686,0,0,1,0-1.371h5.361a.686.686,0,0,1,0,1.371Zm-10.724,0h-5.363a.686.686,0,0,1,0-1.371h5.363a.686.686,0,1,1,0,1.371Zm-10.727,0h-4.245a5.715,5.715,0,0,1-1.253-.137.685.685,0,1,1,.293-1.338,4.379,4.379,0,0,0,.96.1h4.245a.686.686,0,1,1,0,1.371Zm-9.057-3.636a.685.685,0,0,1-.661-.5,5.927,5.927,0,0,1-.214-1.544,5.656,5.656,0,0,1,1.7-4.066.684.684,0,0,1,.962.973,4.308,4.308,0,0,0-1.289,3.09,4.466,4.466,0,0,0,.165,1.179.686.686,0,0,1-.477.845A.7.7,0,0,1,114.732,83.038Zm66.335-.058a.613.613,0,0,1-.173-.025.682.682,0,0,1-.488-.836,4.463,4.463,0,0,0,.145-1.13,4.29,4.29,0,0,0-1.327-3.126.686.686,0,1,1,.949-.99,5.714,5.714,0,0,1,1.555,5.594A.684.684,0,0,1,181.067,82.98Zm-6.37-6.309h-5.363a.686.686,0,0,1,0-1.371H174.7a.686.686,0,0,1,0,1.371Zm-48.312,0h-5.363a.686.686,0,1,1,0-1.371h5.363a.686.686,0,1,1,0,1.371Z" transform="translate(-113.857 -75.3)"/></g><g transform="translate(43.941 94.099)"><path class="a" d="M124.075,78.323H120.84a.686.686,0,0,1,0-1.371h2.251l.707-2.133a.687.687,0,1,1,1.3.436Z" transform="translate(-120.154 -74.351)"/></g><g transform="translate(47.275 86.697)"><path class="a" d="M123.931,75.625a.653.653,0,0,1-.217-.036.689.689,0,0,1-.436-.869l.568-1.7h-1.791a.686.686,0,1,1,0-1.371h3.694l-1.168,3.5A.69.69,0,0,1,123.931,75.625Z" transform="translate(-121.37 -71.652)"/></g><path class="a" d="M210.9,128.1h-5.531a.686.686,0,0,1,0-1.371H210.9a.686.686,0,0,1,0,1.371Zm-11.067,0H194.3a.686.686,0,0,1,0-1.371h5.531a.686.686,0,0,1,0,1.371Zm-11.064,0h-5.533a.686.686,0,0,1,0-1.371h5.533a.686.686,0,0,1,0,1.371Zm-42.208,0h-5.533a.686.686,0,0,1,0-1.371h5.533a.686.686,0,0,1,0,1.371Zm-11.07,0h-5.531a.686.686,0,0,1,0-1.371h5.531a.686.686,0,0,1,0,1.371Zm-11.064,0h-5.533a.686.686,0,0,1,0-1.371h5.533a.686.686,0,0,1,0,1.371Zm-11.061-.1a.626.626,0,0,1-.1-.008,10.634,10.634,0,0,1-5.322-2.391.684.684,0,0,1-.085-.965.692.692,0,0,1,.968-.085,9.269,9.269,0,0,0,4.637,2.087.685.685,0,0,1-.1,1.363Zm103.062-.016a.686.686,0,0,1-.107-1.363,9.3,9.3,0,0,0,4.615-2.142.685.685,0,0,1,.894,1.039,10.663,10.663,0,0,1-5.295,2.457A.7.7,0,0,1,216.426,127.982Zm-111.107-6.743a.686.686,0,0,1-.65-.469,10.734,10.734,0,0,1-.54-3.353v-2.344a.686.686,0,1,1,1.371,0v2.342a9.325,9.325,0,0,0,.472,2.926.687.687,0,0,1-.436.866A.65.65,0,0,1,105.319,121.239Zm119.072-.115a.656.656,0,0,1-.206-.03.686.686,0,0,1-.447-.861,9.4,9.4,0,0,0,.433-2.819v-2.46a.686.686,0,0,1,1.371,0v2.46a10.714,10.714,0,0,1-.5,3.233A.69.69,0,0,1,224.391,121.124Zm-119.577-10.9a.686.686,0,0,1-.685-.686v-5.533a.686.686,0,1,1,1.371,0v5.533A.686.686,0,0,1,104.814,110.227Zm120.043-.118a.688.688,0,0,1-.686-.686v-5.536a.686.686,0,0,1,1.371,0v5.536A.686.686,0,0,1,224.858,110.109ZM104.814,99.16a.688.688,0,0,1-.685-.686V92.941a.686.686,0,1,1,1.371,0v5.533A.688.688,0,0,1,104.814,99.16Zm120.043-.118a.689.689,0,0,1-.686-.686V92.823a.686.686,0,0,1,1.371,0v5.533A.688.688,0,0,1,224.858,99.042ZM104.814,88.1a.688.688,0,0,1-.685-.686V81.875a.686.686,0,1,1,1.371,0v5.536A.688.688,0,0,1,104.814,88.1Zm120.043-.121a.689.689,0,0,1-.686-.685V81.757a.686.686,0,1,1,1.371,0V87.29A.688.688,0,0,1,224.858,87.976ZM104.814,77.027a.686.686,0,0,1-.685-.685V70.81a.686.686,0,1,1,1.371,0v5.531A.686.686,0,0,1,104.814,77.027Zm120.043-.118a.688.688,0,0,1-.686-.686V70.69a.686.686,0,0,1,1.371,0v5.533A.686.686,0,0,1,224.858,76.909ZM104.814,65.96a.686.686,0,0,1-.685-.686V59.744a.686.686,0,0,1,1.371,0v5.531A.686.686,0,0,1,104.814,65.96Zm120.043-.118a.688.688,0,0,1-.686-.686V59.626a.686.686,0,0,1,1.371,0v5.531A.686.686,0,0,1,224.858,65.842ZM104.814,54.9a.686.686,0,0,1-.685-.686V50.725a10.831,10.831,0,0,1,.219-2.166.694.694,0,0,1,.809-.537.686.686,0,0,1,.535.809,9.4,9.4,0,0,0-.192,1.895V54.21A.686.686,0,0,1,104.814,54.9Zm120.043-.121a.688.688,0,0,1-.686-.686V50.725a9.122,9.122,0,0,0-.214-2,.688.688,0,0,1,.524-.817.677.677,0,0,1,.814.524,10.462,10.462,0,0,1,.247,2.3V54.09A.686.686,0,0,1,224.858,54.775ZM107.551,44.536a.687.687,0,0,1-.5-1.157,10.694,10.694,0,0,1,5.012-2.986.684.684,0,1,1,.354,1.322,9.339,9.339,0,0,0-4.368,2.608A.7.7,0,0,1,107.551,44.536Zm114.49-.085a.681.681,0,0,1-.494-.211,9.321,9.321,0,0,0-4.4-2.55.686.686,0,1,1,.337-1.33,10.706,10.706,0,0,1,5.051,2.928.687.687,0,0,1-.494,1.163Zm-10.233-3.046h-5.533a.686.686,0,1,1,0-1.371h5.533a.686.686,0,1,1,0,1.371Zm-11.067,0h-5.531a.686.686,0,1,1,0-1.371h5.531a.686.686,0,0,1,0,1.371Zm-11.067,0h-5.531a.686.686,0,1,1,0-1.371h5.531a.686.686,0,0,1,0,1.371Zm-11.064,0h-5.536a.686.686,0,1,1,0-1.371h5.536a.686.686,0,0,1,0,1.371Zm-11.067,0H162.01a.686.686,0,1,1,0-1.371h5.533a.686.686,0,0,1,0,1.371Zm-11.067,0h-5.533a.686.686,0,0,1,0-1.371h5.533a.686.686,0,1,1,0,1.371Zm-11.064,0h-5.536a.686.686,0,1,1,0-1.371h5.536a.686.686,0,0,1,0,1.371Zm-11.07,0h-5.531a.686.686,0,1,1,0-1.371h5.531a.686.686,0,1,1,0,1.371Zm-11.067,0h-5.531a.686.686,0,1,1,0-1.371h5.531a.686.686,0,0,1,0,1.371Z" transform="translate(-104.129 -40.034)"/></g><g transform="translate(207.64 108.335)"><path class="a" d="M145.992,69.056h-3.428a.686.686,0,0,1,0-1.371h2.057V65.629a.686.686,0,1,1,1.371,0Z" transform="translate(-141.879 -64.943)"/></g><g transform="translate(124.856 111.077)"><path class="a" d="M189.984,67.314H184.81a.686.686,0,1,1,0-1.371h5.174a.686.686,0,1,1,0,1.371Zm-10.346,0h-5.177a.686.686,0,1,1,0-1.371h5.177a.686.686,0,0,1,0,1.371Zm-10.351,0h-5.171a.686.686,0,1,1,0-1.371h5.171a.686.686,0,0,1,0,1.371Zm-10.346,0h-5.177a.686.686,0,0,1,0-1.371h5.177a.686.686,0,1,1,0,1.371Zm-10.351,0h-5.171a.686.686,0,0,1,0-1.371h5.171a.686.686,0,1,1,0,1.371Zm-10.346,0H133.07a.686.686,0,1,1,0-1.371h5.174a.686.686,0,1,1,0,1.371Zm-10.348,0h-5.174a.686.686,0,1,1,0-1.371H127.9a.686.686,0,1,1,0,1.371Zm-10.348,0h-5.174a.686.686,0,0,1,0-1.371h5.174a.686.686,0,0,1,0,1.371Z" transform="translate(-111.688 -65.943)"/></g><g transform="translate(116.94 108.335)"><path class="a" d="M112.229,69.056H108.8V65.629a.686.686,0,1,1,1.371,0v2.057h2.057a.686.686,0,1,1,0,1.371Z" transform="translate(-108.801 -64.943)"/></g><g transform="translate(116.94 61.622)"><path class="a" d="M109.486,90.151a.686.686,0,0,1-.685-.686V83.627a.686.686,0,1,1,1.371,0v5.838A.688.688,0,0,1,109.486,90.151Zm0-11.676a.688.688,0,0,1-.685-.686V71.949a.686.686,0,1,1,1.371,0V77.79A.689.689,0,0,1,109.486,78.475Zm0-11.678a.686.686,0,0,1-.685-.686V60.271a.686.686,0,1,1,1.371,0v5.841A.688.688,0,0,1,109.486,66.8Zm0-11.678a.686.686,0,0,1-.685-.686v-5.84a.686.686,0,1,1,1.371,0v5.84A.688.688,0,0,1,109.486,55.119Z" transform="translate(-108.801 -47.907)"/></g><g transform="translate(116.94 53.042)"><path class="a" d="M109.486,48.891a.686.686,0,0,1-.685-.686V44.778h3.428a.686.686,0,1,1,0,1.371h-2.057v2.057A.688.688,0,0,1,109.486,48.891Z" transform="translate(-108.801 -44.778)"/></g><g transform="translate(124.853 53.042)"><path class="a" d="M189.983,46.149h-5.174a.686.686,0,0,1,0-1.371h5.174a.686.686,0,0,1,0,1.371Zm-10.346,0h-5.174a.686.686,0,1,1,0-1.371h5.174a.686.686,0,0,1,0,1.371Zm-10.351,0h-5.171a.686.686,0,1,1,0-1.371h5.171a.686.686,0,1,1,0,1.371Zm-10.346,0h-5.174a.686.686,0,0,1,0-1.371h5.174a.686.686,0,1,1,0,1.371Zm-10.348,0h-5.174a.686.686,0,1,1,0-1.371h5.174a.686.686,0,1,1,0,1.371Zm-10.348,0h-5.174a.686.686,0,1,1,0-1.371h5.174a.686.686,0,0,1,0,1.371Zm-10.346,0h-5.177a.686.686,0,0,1,0-1.371H127.9a.686.686,0,1,1,0,1.371Zm-10.351,0h-5.174a.686.686,0,1,1,0-1.371h5.174a.686.686,0,1,1,0,1.371Z" transform="translate(-111.687 -44.778)"/></g><g transform="translate(207.64 53.042)"><path class="a" d="M145.307,48.891a.686.686,0,0,1-.685-.686V46.149h-2.057a.686.686,0,0,1,0-1.371h3.428v3.428A.686.686,0,0,1,145.307,48.891Z" transform="translate(-141.879 -44.778)"/></g><g transform="translate(210.382 61.622)"><path class="a" d="M143.565,90.151a.686.686,0,0,1-.685-.686V83.627a.686.686,0,1,1,1.371,0v5.838A.686.686,0,0,1,143.565,90.151Zm0-11.676a.688.688,0,0,1-.685-.686V71.949a.686.686,0,1,1,1.371,0V77.79A.688.688,0,0,1,143.565,78.475Zm0-11.678a.686.686,0,0,1-.685-.686V60.271a.686.686,0,1,1,1.371,0v5.841A.686.686,0,0,1,143.565,66.8Zm0-11.678a.686.686,0,0,1-.685-.686v-5.84a.686.686,0,1,1,1.371,0v5.84A.686.686,0,0,1,143.565,55.119Z" transform="translate(-142.879 -47.907)"/></g></g><g transform="translate(11)"><circle class="a" cx="2" cy="2" r="2" transform="translate(673 249)"/><circle class="a" cx="2" cy="2" r="2" transform="translate(680 249)"/><circle class="a" cx="2" cy="2" r="2" transform="translate(687 249)"/></g></g></svg>