<svg xmlns="http://www.w3.org/2000/svg" width="18" height="18" viewBox="0 0 18 18"><defs><style>.a{fill:none;}.b{fill:#a4a4a8;}</style></defs><g transform="translate(-3903.653 39.721)"><rect class="a" width="18" height="18" transform="translate(3903.653 -39.721)"/><g transform="translate(3905.376 -37.998)"><path class="b" d="M-95.449,1.339A3.668,3.668,0,0,1-91.785,5a3.668,3.668,0,0,1-3.664,3.664,3.717,3.717,0,0,1-.686-.064l-.745-.14-.5.566-.486.547h-2.1V11.4h-1.819v1.819h-1.871v-1.29l4.407-4.407.583-.583-.258-.783A3.672,3.672,0,0,1-99.113,5a3.668,3.668,0,0,1,3.664-3.664m0-1.339a5,5,0,0,0-5,5,4.992,4.992,0,0,0,.251,1.568l-4.6,4.6a.685.685,0,0,0-.2.483v2.219a.682.682,0,0,0,.682.682h3.184a.682.682,0,0,0,.682-.682V12.735h1.138a.682.682,0,0,0,.682-.682V10.916h1.058a.779.779,0,0,0,.51-.229l.682-.768a5.032,5.032,0,0,0,.933.087,5,5,0,0,0,5-5,4.993,4.993,0,0,0-5-5Zm.583,5.89a1.47,1.47,0,0,1-1.47-1.47,1.47,1.47,0,0,1,1.47-1.47A1.47,1.47,0,0,1-93.4,4.42a1.47,1.47,0,0,1-1.47,1.47Z" transform="translate(105)"/></g></g></svg>