<svg xmlns="http://www.w3.org/2000/svg" width="32" height="32" viewBox="0 0 32 32"><defs><style>.a{fill:#2a579a;}.b{fill:#fff;}</style></defs><g transform="translate(-869 -296)"><circle class="a" cx="16" cy="16" r="16" transform="translate(869 296)"/><g transform="translate(876.053 304.129)"><g transform="translate(0 0)"><path class="b" d="M19.042,56.21,14.231,51.4a.687.687,0,0,0-1.173.486v2.062H8.247a.687.687,0,1,0,0,1.375h5.5a.687.687,0,0,0,.687-.687v-1.09L17.584,56.7l-3.152,3.152v-1.09a.687.687,0,0,0-.687-.687H6.185V56.009a.687.687,0,0,0-1.173-.486L.2,60.334a.687.687,0,0,0,0,.972l4.811,4.811a.687.687,0,0,0,.486.2.679.679,0,0,0,.263-.052.687.687,0,0,0,.424-.635V63.569H11a.687.687,0,0,0,0-1.375H5.5a.687.687,0,0,0-.687.687v1.09L1.659,60.82,4.81,57.668v1.09a.687.687,0,0,0,.687.687h7.56v2.062a.687.687,0,0,0,1.173.486l4.811-4.811A.687.687,0,0,0,19.042,56.21Z" transform="translate(0 -51.198)"/></g></g></g></svg>