<svg xmlns="http://www.w3.org/2000/svg" width="18" height="18" viewBox="0 0 18 18"><defs><style>.a{fill:none;}.b{fill:#fff;}</style></defs><g transform="translate(-4054.445 39.694)"><rect class="a" width="18" height="18" transform="translate(4054.445 -39.694)"/><g transform="translate(4055.438 -38.059)"><path class="b" d="M14.451,12.613v.737a1.381,1.381,0,0,1-1.381,1.381H2.943A1.382,1.382,0,0,1,1.562,13.35v-.737A3.868,3.868,0,0,1,5.429,8.746c.829,0,1.223.461,2.577.461s1.752-.461,2.578-.461A3.868,3.868,0,0,1,14.451,12.613Zm-1.381,0a2.49,2.49,0,0,0-2.486-2.486,11.17,11.17,0,0,1-2.578.46,11.28,11.28,0,0,1-2.577-.46,2.49,2.49,0,0,0-2.486,2.486v.737H13.071ZM3.864,4.143A4.143,4.143,0,1,1,8.006,8.286,4.144,4.144,0,0,1,3.864,4.143Zm1.381,0A2.762,2.762,0,1,0,8.006,1.381,2.766,2.766,0,0,0,5.245,4.143Z"/></g></g></svg>