<svg xmlns="http://www.w3.org/2000/svg" width="314.764" height="89.723" viewBox="0 0 314.764 89.723"><defs><style>.a{fill:#a4a4a8;}.a,.b,.c,.d{fill-rule:evenodd;}.b{fill:#fff;}.c{fill:#cb0017;}.d{fill:#48474a;}</style></defs><g transform="translate(130.834 -101.359)"><g transform="translate(-130.834 101.359)"><path class="a" d="M174.8,67.381,151.736,90.243H119.118L96.05,67.381V35.05l23.068-22.866h32.618L174.8,35.05Zm5.885,2.405-26.515,26.3h-37.5l-26.507-26.3V32.643L116.673,6.359h37.5L180.69,32.643Z" transform="translate(-90.166 -6.359)"/><path class="b" d="M177.031,69.585,153.962,92.447H121.344L98.276,69.585V37.254l23.068-22.866h32.618l23.069,22.866Z" transform="translate(-92.392 -8.563)"/><g transform="translate(14.76 18.929)"><path class="c" d="M149.657,32.449l-7.667,7.575h15.328Z" transform="translate(-119.15 -32.449)"/><path class="c" d="M149.64,101.054l7.671-7.587H141.99Z" transform="translate(-119.15 -49.196)"/><g transform="translate(0 12.778)"><path class="d" d="M134.517,50.464h-3.452l-.748,1.769a15.908,15.908,0,0,0-7.89-2.172c-5.732,0-11.918,1.683-11.918,7.855,0,10.734,17.977,6.391,17.977,11.747,0,2.135-2.611,3.216-4.774,3.216-4.9,0-8.508-2.733-9.054-6.653H110.8v9.8h3.488l1.077-1.985a16.444,16.444,0,0,0,9.05,2.317c5.735,0,11.463-2.024,11.463-8,0-10.665-17.976-6.876-17.976-11.6,0-2.512,2.245-3.22,4.651-3.22,3.655,0,7.515,2.2,8.138,6.138h3.828Z" transform="translate(-110.509 -50.061)"/><path class="d" d="M166.716,51.087v3.3h1.619c1.006,0,2.025.031,2.025.7,0,.332-2.313,2.013-4.68,3.846l-5.066,3.964V55.87a1.415,1.415,0,0,1,1.616-1.479H164.4v-3.3H149.027v3.3h2.156c1.048,0,1.624.554,1.624,1.479V71.1a1.422,1.422,0,0,1-1.624,1.5h-2.11v3.3H164.35V72.6h-2.12a1.42,1.42,0,0,1-1.616-1.5v-3.18l4.276-3.252,4.1,6.019a3.428,3.428,0,0,1,.75,1.507c0,.326-.831.4-1.616.4h-1.5v3.3h15.443V72.6h-1.447c-1,0-1.873-.258-3.16-2.169l-6.983-10.248,6.161-4.861c1.082-.856,2.111-.927,4.685-.927v-3.3Z" transform="translate(-121.081 -50.343)"/></g></g></g><g transform="translate(-28.487 131.415)"><path class="d" d="M97.028,144.254h.914c1.163,0,1.711.208,1.711,1.143,0,1-.468,1.2-1.4,1.2H97.028ZM94.64,149.87a.456.456,0,0,1-.5.5h-.775v1.109H98.3v-1.109h-.786a.45.45,0,0,1-.489-.5v-2.164h1.045c1.022,0,1.146.175,1.146.93v1.028a1.833,1.833,0,0,0,2.03,2.078c1.635,0,2.067-.936,2.067-2.153v-.435h-.857v.5c0,.391-.088.779-.423.779a.378.378,0,0,1-.431-.427v-1.32c0-1.031-.533-1.339-1.479-1.611v-.018c1.11-.15,1.91-.7,1.91-1.888,0-1.344-1.049-2.029-2.826-2.029H93.356v1.109h.786a.453.453,0,0,1,.5.5Z" transform="translate(-33.045 -142.884)"/><path class="d" d="M118.678,143.145l-2.113,6.283c-.261.773-.437.944-.887.944h-.427v1.109h3.733v-1.109h-.372c-.342,0-.782-.04-.782-.235a2.619,2.619,0,0,1,.188-.81l.152-.5h2.588l.266.906a1.419,1.419,0,0,1,.066.459c0,.144-.313.184-.7.184h-.383v1.109h4.639v-1.109h-.429c-.449,0-.625-.171-.885-.944l-2.116-6.283Zm.757,1.871h.036l.908,2.71h-1.841Z" transform="translate(-39.055 -142.884)"/><path class="d" d="M169.489,143.963c1.265,0,1.849,1.058,1.849,3.257s-.584,3.245-1.849,3.245-1.862-1.047-1.862-3.245S168.215,143.963,169.489,143.963Zm0-1.178c-2.8,0-4.618,1.7-4.618,4.435s1.818,4.423,4.618,4.423c2.782,0,4.6-1.691,4.6-4.423S172.271,142.785,169.489,142.785Z" transform="translate(-52.673 -142.785)"/><path class="d" d="M219.714,144.254h.905c1.165,0,1.714.208,1.714,1.143,0,1-.467,1.2-1.413,1.2h-1.207Zm-2.394,5.616a.457.457,0,0,1-.5.5h-.765v1.109h4.931v-1.109h-.793a.445.445,0,0,1-.479-.5v-2.164h1.027c1.035,0,1.162.175,1.162.93v1.028a1.827,1.827,0,0,0,2.022,2.078c1.637,0,2.067-.936,2.067-2.153v-.435h-.853v.5c0,.391-.093.779-.423.779a.378.378,0,0,1-.43-.427v-1.32c0-1.031-.533-1.339-1.488-1.611v-.018c1.106-.15,1.918-.7,1.918-1.888,0-1.344-1.047-2.029-2.822-2.029h-5.856v1.109h.781a.455.455,0,0,1,.5.5Z" transform="translate(-66.717 -142.884)"/><path class="d" d="M279.513,143.963c1.28,0,1.86,1.058,1.86,3.257s-.58,3.245-1.86,3.245c-1.258,0-1.847-1.047-1.847-3.245S278.255,143.963,279.513,143.963Zm0-1.178c-2.794,0-4.6,1.7-4.6,4.435s1.811,4.423,4.6,4.423c2.809,0,4.62-1.691,4.62-4.423S282.322,142.785,279.513,142.785Z" transform="translate(-82.875 -142.785)"/><path class="d" d="M22.356,143.145h-4.1v1.109h.793a.449.449,0,0,1,.487.5v5.119a.452.452,0,0,1-.487.5h-.782v1.109h3.938v-1.109h-.781a.455.455,0,0,1-.5-.5v-4.591h.03l3.528,6.2H27.05v-6.73a.453.453,0,0,1,.5-.5h.757v-1.109H24.393v1.109h.782a.446.446,0,0,1,.489.5v4.141h-.018Z" transform="translate(-12.434 -142.884)"/><path class="d" d="M41.516,146.973H36.9v1.107h.654a.469.469,0,0,1,.506.513v1.061c0,.595-.592.781-1.079.781-1.46,0-2.171-1.038-2.171-3.216s.711-3.257,2.171-3.257a2.217,2.217,0,0,1,2.073,2.385h1.178v-3.422H39.1l-.252.7a3.415,3.415,0,0,0-2.288-.845,4.209,4.209,0,0,0-4.5,4.545c0,2.818,1.86,4.313,4.5,4.313a4.14,4.14,0,0,0,2.5-.776l.287.613h1.1v-2.888a.461.461,0,0,1,.5-.513h.573Z" transform="translate(-16.221 -142.785)"/><path class="d" d="M46.842,149.87a.452.452,0,0,1-.493.5h-.78v1.109h8.439v-3.408H52.827c0,2.022-.716,2.3-2.039,2.3h-1.55v-2.621h.749c.471,0,.645.583.645,1.053v.3h1.053V145.3H50.632v.282c0,.776-.272,1.077-1.014,1.077h-.381v-2.405h1.254c1.619,0,2.335.27,2.335,2.08h1.181v-3.189H45.554v1.109h.794a.449.449,0,0,1,.493.5Z" transform="translate(-19.925 -142.884)"/><path class="d" d="M62.4,143.145H58.316v1.109H59.1a.457.457,0,0,1,.509.5v5.119a.46.46,0,0,1-.509.5h-.769v1.109h3.923v-1.109h-.776a.449.449,0,0,1-.49-.5v-4.591h.023l3.531,6.2H67.1v-6.73a.452.452,0,0,1,.5-.5h.765v-1.109H64.453v1.109h.769a.45.45,0,0,1,.495.5v4.141H65.69Z" transform="translate(-23.428 -142.884)"/><path class="d" d="M77.988,143.145h-4.95v1.109h.789c.313,0,.5.11.5.321v5.295a.457.457,0,0,1-.5.5h-.782v1.109h4.931v-1.109h-.765a.456.456,0,0,1-.5-.5v-5.119c0-.453.178-.5.5-.5h.777Z" transform="translate(-27.469 -142.884)"/><path class="d" d="M81.96,149.87a.456.456,0,0,1-.5.5h-.775v1.109h8.429v-3.408H87.944c0,2.022-.718,2.3-2.043,2.3H84.355v-2.621h.754c.453,0,.639.583.639,1.053v.3H86.8V145.3H85.748v.282c0,.776-.27,1.077-1.009,1.077h-.384v-2.405h1.254c1.617,0,2.335.27,2.335,2.08h1.171v-3.189H80.677v1.109h.784a.453.453,0,0,1,.5.5Z" transform="translate(-29.565 -142.884)"/><path class="d" d="M112.65,143.145H107.7v1.109h.791c.313,0,.483.11.483.321v5.295a.446.446,0,0,1-.483.5h-.777v1.109h4.924v-1.109h-.767a.457.457,0,0,1-.5-.5v-5.119c0-.453.179-.5.5-.5h.781Z" transform="translate(-36.982 -142.884)"/><path class="d" d="M133.96,143.145v1.109h.268a1.176,1.176,0,0,1,1.233.7l2.007,3.166v1.752a.454.454,0,0,1-.5.5h-.833v1.109h5.076v-1.109h-.868a.454.454,0,0,1-.494-.5v-1.752l2.264-3.534c.162-.25.423-.33.876-.33h.266v-1.109H139.6v1.109h.525c.253,0,.39.045.39.191a1.037,1.037,0,0,1-.191.432L139.2,146.6l-1.115-1.72a1.028,1.028,0,0,1-.2-.432c0-.146.152-.191.407-.191h.512v-1.109Z" transform="translate(-44.189 -142.884)"/><path class="d" d="M159.505,143.63a4.7,4.7,0,0,0-2.541-.845,4.187,4.187,0,0,0-4.318,4.42c0,2.943,1.852,4.438,4.481,4.438,2.353,0,3.744-1.138,3.773-3.441h-1.172a2.086,2.086,0,0,1-2.054,2.263c-1.772,0-2.272-1.268-2.272-3.26,0-2.235.763-3.242,2.176-3.242a2.144,2.144,0,0,1,2.151,2.385H160.9v-3.422h-1.14Z" transform="translate(-49.318 -142.785)"/><path class="d" d="M182.077,143.145H177.99v1.109h.79a.443.443,0,0,1,.485.5v5.119a.445.445,0,0,1-.485.5H178v1.109h3.927v-1.109h-.781a.452.452,0,0,1-.49-.5v-4.591h.025l3.53,6.2h2.562v-6.73a.45.45,0,0,1,.5-.5h.763v-1.109h-3.911v1.109h.776a.451.451,0,0,1,.5.5v4.141h-.031Z" transform="translate(-56.274 -142.884)"/><path class="d" d="M199.616,142.926h-1.051l-.228.593a4.555,4.555,0,0,0-2.418-.734c-1.741,0-3.64.574-3.64,2.647,0,3.6,5.5,2.145,5.5,3.945,0,.725-.8,1.087-1.452,1.087a2.614,2.614,0,0,1-2.774-2.234h-1.179v3.292h1.062l.331-.674a4.686,4.686,0,0,0,2.771.794c1.755,0,3.5-.688,3.5-2.709,0-3.582-5.5-2.3-5.5-3.889,0-.845.685-1.082,1.423-1.082a2.478,2.478,0,0,1,2.493,2.058h1.158Z" transform="translate(-60.196 -142.785)"/><path class="d" d="M204.749,146.334c0-1.286.379-2.08,1.838-2.08v5.616a.457.457,0,0,1-.5.5H205.3v1.109h4.929v-1.109h-.76a.457.457,0,0,1-.5-.5v-5.616c1.464,0,1.849.794,1.849,2.08H212v-3.189h-8.431v3.189Z" transform="translate(-63.294 -142.884)"/><path class="d" d="M229.712,144.254h.785a.452.452,0,0,1,.5.5v4.167c0,2.1,1.374,2.823,3.6,2.823,2.365,0,3.369-1.087,3.369-2.954v-4.036a.449.449,0,0,1,.492-.5h.752v-1.109h-3.877v1.109h.75a.451.451,0,0,1,.5.5v3.6c0,1.564-.251,2.208-1.732,2.208a1.289,1.289,0,0,1-1.474-1.377v-4.435a.455.455,0,0,1,.5-.5h.794v-1.109h-4.959Z" transform="translate(-70.47 -142.884)"/><path class="d" d="M249.969,143.63a4.725,4.725,0,0,0-2.542-.845,4.188,4.188,0,0,0-4.316,4.42c0,2.943,1.854,4.438,4.479,4.438,2.349,0,3.734-1.138,3.768-3.441h-1.174a2.086,2.086,0,0,1-2.05,2.263c-1.778,0-2.272-1.268-2.272-3.26,0-2.235.765-3.242,2.174-3.242a2.143,2.143,0,0,1,2.148,2.385h1.174v-3.422h-1.138Z" transform="translate(-74.148 -142.785)"/><path class="d" d="M262.2,143.63a4.736,4.736,0,0,0-2.543-.845,4.19,4.19,0,0,0-4.323,4.42c0,2.943,1.855,4.438,4.475,4.438,2.365,0,3.744-1.138,3.775-3.441H262.4a2.079,2.079,0,0,1-2.042,2.263c-1.78,0-2.281-1.268-2.281-3.26,0-2.235.771-3.242,2.174-3.242a2.139,2.139,0,0,1,2.15,2.385h1.178v-3.422h-1.147Z" transform="translate(-77.501 -142.785)"/><path class="d" d="M272.526,143.145h-4.944v1.109h.781c.322,0,.5.11.5.321v5.295a.453.453,0,0,1-.5.5h-.775v1.109h4.927v-1.109h-.776a.456.456,0,0,1-.5-.5v-5.119c0-.453.181-.5.5-.5h.786Z" transform="translate(-80.864 -142.884)"/><path class="d" d="M292.119,143.145h-4.09v1.109h.788a.453.453,0,0,1,.5.5v5.119a.456.456,0,0,1-.5.5h-.78v1.109h3.926v-1.109h-.778a.451.451,0,0,1-.49-.5v-4.591h.021l3.53,6.2h2.577v-6.73a.448.448,0,0,1,.493-.5h.758v-1.109h-3.908v1.109h.773a.45.45,0,0,1,.5.5v4.141h-.027Z" transform="translate(-86.476 -142.884)"/><path class="d" d="M15.5,143.145H10.561v1.109h.784c.316,0,.49.11.49.321v5.295a.45.45,0,0,1-.49.5h-.774v1.109h4.923v-1.109h-.779a.447.447,0,0,1-.483-.5v-5.119c0-.453.171-.5.483-.5h.79Z" transform="translate(-10.321 -142.884)"/><path class="d" d="M73.618,174.991a.862.862,0,0,1-.932.963H71.27v2.083h8.54c5.656,0,9.115-2.33,9.115-7.744,0-5.658-3.524-8.014-8.974-8.014h-8.7v2.095h1.439a.857.857,0,0,1,.932.945Zm4.513-10.617h1.1c3.176,0,4.608,1.066,4.608,5.776s-1.432,5.8-4.608,5.8h-1.1Z" transform="translate(-26.977 -148.135)"/><path class="d" d="M106.161,163.83c2.4,0,3.5,2,3.5,6.171s-1.1,6.131-3.5,6.131-3.5-1.974-3.5-6.131S103.761,163.83,106.161,163.83Zm0-2.206c-5.28,0-8.708,3.212-8.708,8.377s3.427,8.339,8.708,8.339,8.712-3.186,8.712-8.339S111.436,161.624,106.161,161.624Z" transform="translate(-34.17 -147.956)"/><path class="d" d="M167,163.83c2.4,0,3.5,2,3.5,6.171s-1.1,6.131-3.5,6.131-3.5-1.974-3.5-6.131S164.6,163.83,167,163.83Zm0-2.206c-5.289,0-8.71,3.212-8.71,8.377s3.421,8.339,8.71,8.339c5.272,0,8.7-3.186,8.7-8.339S172.273,161.624,167,161.624Z" transform="translate(-50.867 -147.956)"/><path class="d" d="M186.044,174.991a.866.866,0,0,1-.934.963h-1.457v2.083H193.1v-2.083h-1.613a.863.863,0,0,1-.928-.963v-3.744H193.2c4.4,0,6.739-1.238,6.739-4.5s-2.334-4.469-6.266-4.469H183.623v2.095h1.487a.861.861,0,0,1,.934.945Zm4.515-10.617h2.455a2.319,2.319,0,0,1,2.412,2.4c0,1.477-1.128,2.375-2.81,2.375h-2.058Z" transform="translate(-57.82 -148.135)"/><path class="d" d="M209.833,174.991a.864.864,0,0,1-.932.963h-1.473v2.083h9.452v-2.083h-1.6a.868.868,0,0,1-.936-.963v-3.744h2.645c4.409,0,6.726-1.238,6.726-4.5s-2.317-4.469-6.246-4.469H207.412v2.095H208.9a.859.859,0,0,1,.932.945Zm4.508-10.617h2.449a2.315,2.315,0,0,1,2.417,2.4c0,1.477-1.124,2.375-2.8,2.375h-2.066Z" transform="translate(-64.349 -148.135)"/><path class="d" d="M261.913,164.374h1.729c2.21,0,3.245.4,3.245,2.164,0,1.89-.9,2.28-2.673,2.28h-2.3ZM257.4,174.991a.864.864,0,0,1-.934.963H255v2.083h9.34v-2.083h-1.492a.863.863,0,0,1-.934-.963v-4.077h1.962c1.944,0,2.189.334,2.189,1.764v1.943c0,2.788,1.536,3.9,3.81,3.9,3.1,0,3.911-1.767,3.911-4.072v-.8h-1.609v.95c0,.734-.168,1.475-.788,1.475a.714.714,0,0,1-.816-.811v-2.5c0-1.948-1.009-2.528-2.811-3.021V169.7c2.09-.289,3.627-1.309,3.627-3.565,0-2.547-1.995-3.855-5.349-3.855H254.978v2.095h1.492a.859.859,0,0,1,.934.945Z" transform="translate(-77.405 -148.135)"/><path class="d" d="M63.9,169.548H55.167v2.089h1.246a.865.865,0,0,1,.939.952v2.024c0,1.117-1.109,1.479-2.016,1.479-2.782,0-4.1-1.983-4.1-6.09s1.317-6.171,4.1-6.171c2.423,0,3.842,2.174,3.914,4.526h2.228v-6.468H59.319l-.48,1.329a6.432,6.432,0,0,0-4.317-1.593c-5.114,0-8.491,3.212-8.491,8.587,0,5.316,3.5,8.129,8.491,8.129A7.848,7.848,0,0,0,59.25,176.9l.527,1.164h2.084v-5.471a.86.86,0,0,1,.931-.952H63.9Z" transform="translate(-20.056 -147.956)"/><path class="d" d="M141.605,162.279v2.095h.936c.583,0,1.183.029,1.183.453a19.182,19.182,0,0,1-2.706,2.444l-2.933,2.523v-4.475a.853.853,0,0,1,.929-.945h1.248v-2.095h-8.88v2.095h1.251a.863.863,0,0,1,.94.945v9.673a.868.868,0,0,1-.94.963h-1.217v2.083h8.83v-2.083h-1.231a.858.858,0,0,1-.929-.963v-2.013l2.466-2.064,2.377,3.822a2.393,2.393,0,0,1,.427.95c0,.223-.475.268-.932.268h-.858v2.083h8.918v-2.083h-.836c-.583,0-1.075-.166-1.827-1.386l-4.031-6.505,3.551-3.086c.623-.559,1.231-.6,2.7-.6v-2.095Z" transform="translate(-43.482 -148.135)"/><path class="d" d="M233.148,174.991a.863.863,0,0,1-.931.963h-1.466v2.083h15.932V171.6h-2.222c0,3.835-1.353,4.353-3.871,4.353h-2.927V171H239.1c.866,0,1.194,1.092,1.194,1.978v.569H242.3v-7.17H240.3v.522c0,1.466-.5,2.008-1.891,2.008h-.744v-4.533h2.374c3.071,0,4.424.512,4.424,3.954h2.222v-6.049H230.725v2.095h1.492a.858.858,0,0,1,.931.945Z" transform="translate(-70.748 -148.135)"/><path class="d" d="M41.175,162.279H31.818v2.095H33.3c.6,0,.941.221.941.617v10a.869.869,0,0,1-.941.963H31.846v2.083h9.3v-2.083H39.688a.862.862,0,0,1-.934-.963v-9.673c0-.844.329-.945.934-.945h1.487Z" transform="translate(-16.155 -148.135)"/><path class="d" d="M24.095,161.887H22.1L21.672,163a8.637,8.637,0,0,0-4.557-1.376c-3.314,0-6.885,1.078-6.885,4.994,0,6.83,10.387,4.067,10.387,7.464,0,1.356-1.508,2.05-2.763,2.05a4.936,4.936,0,0,1-5.229-4.239H10.4v6.235h2.016l.616-1.262a8.834,8.834,0,0,0,5.236,1.474c3.3,0,6.615-1.283,6.615-5.087,0-6.776-10.385-4.37-10.385-7.369,0-1.59,1.293-2.055,2.692-2.055a4.684,4.684,0,0,1,4.7,3.906h2.2Z" transform="translate(-10.23 -147.956)"/><path class="d" d="M296.673,161.887h-2L294.243,163a8.649,8.649,0,0,0-4.56-1.376c-3.307,0-6.881,1.078-6.881,4.994,0,6.83,10.386,4.067,10.386,7.464,0,1.356-1.516,2.05-2.761,2.05a4.938,4.938,0,0,1-5.231-4.239h-2.227v6.235h2.01l.625-1.262a8.842,8.842,0,0,0,5.229,1.474c3.309,0,6.626-1.283,6.626-5.087,0-6.776-10.385-4.37-10.385-7.369,0-1.59,1.29-2.055,2.677-2.055a4.671,4.671,0,0,1,4.7,3.906h2.219Z" transform="translate(-85.041 -147.956)"/></g></g></svg>